<?xml version="1.0" encoding="UTF-8"?>
<svg id="Camada_2" data-name="Camada 2" xmlns="http://www.w3.org/2000/svg" xmlns:xlink="http://www.w3.org/1999/xlink" viewBox="0 0 824.81 824.81">
  <defs>
    <style>
      .cls-1 {
        fill: #8372b2;
      }

      .cls-2 {
        fill: #33276a;
      }

      .cls-3 {
        stroke: #a68a55;
        stroke-miterlimit: 10;
        stroke-width: 10px;
      }

      .cls-3, .cls-4 {
        fill: none;
      }

      .cls-5 {
        fill: url(#Novo_padrão);
      }

      .cls-6 {
        fill: #1e183b;
      }

      .cls-7 {
        fill: #a68a55;
      }
    </style>
    <pattern id="Novo_padrão" data-name="Novo padrão" x="0" y="0" width="1198.82" height="1191.37" patternTransform="translate(-5721.5 -5567.78) scale(.27)" patternUnits="userSpaceOnUse" viewBox="0 0 1198.82 1191.37">
      <g>
        <rect class="cls-4" width="1198.82" height="1191.37"/>
        <circle class="cls-7" cx="1095.72" cy="1302.78" r="136.35"/>
        <g>
          <circle class="cls-7" cx="-103.1" cy="1302.78" r="136.35"/>
          <circle class="cls-3" cx="73" cy="1180.82" r="31.8"/>
        </g>
        <g>
          <path class="cls-2" d="M1426.23,763.08c11.18,9.57,22.37,19.14,33.55,28.71,0,0-49.03,87.17-187.22,81.09l28.69,200.97-133.84-76.46,10.41-18.22,94.2,53.81-28.04-196.61c19.02,1.39,46.63,1.03,78.02-8.02,54.56-15.73,88.96-48.58,104.22-65.26Z"/>
          <circle class="cls-7" cx="1095.72" cy="707.09" r="136.35"/>
          <polygon class="cls-6" points="1041.01 1119.2 1020.82 1069.72 975.69 1098.36 1001.79 1051.72 951.27 1034.3 1004 1025.63 986.12 975.26 1025.78 1011.08 1054.01 965.7 1050.73 1019.05 1103.82 1012.82 1060.06 1043.52 1098.03 1081.14 1046.75 1066.07 1041.01 1119.2"/>
          <path class="cls-1" d="M869.1,846.56c7.95,15.3,21.75,35.53,44.59,43.48,35.42,12.32,53.64-18.43,98.67-16.35,57.77,2.67,78.6,55.63,119.26,46.26,23.17-5.34,37.6-27.43,45.4-42.43v51.51c-6.39,5.55-16.39,12.64-29.92,16.07-14.7,3.73-31.47,2.61-76.39-16.07-47.29-19.66-40.63-23.39-57.6-26.67-42.76-8.27-61.29,19.95-97.06,13.21-16.48-3.11-39.54-14.19-63.14-52.81l16.2-16.2Z"/>
        </g>
        <g>
          <path class="cls-2" d="M826.82,1060.92c11.18,9.57,22.37,19.14,33.55,28.71,0,0-49.03,87.17-187.22,81.09l28.69,200.97-133.84-76.46,10.41-18.22,94.2,53.81-28.04-196.61c19.02,1.39,46.63,1.03,78.02-8.02,54.56-15.73,88.96-48.58,104.22-65.26Z"/>
          <circle class="cls-7" cx="496.31" cy="1004.94" r="136.35"/>
          <circle class="cls-3" cx="766.8" cy="966.45" r="56.08"/>
          <circle class="cls-3" cx="672.41" cy="882.97" r="31.8"/>
          <polygon class="cls-1" points="747.87 1222.49 972.88 1135.56 815.97 1453.89 747.87 1222.49"/>
          <path class="cls-1" d="M269.7,1144.4c7.95,15.3,21.75,35.53,44.59,43.48,35.42,12.32,53.64-18.43,98.67-16.35,57.77,2.67,78.6,55.63,119.26,46.26,23.17-5.34,37.6-27.43,45.4-42.43v51.51c-6.39,5.55-16.39,12.64-29.92,16.07-14.7,3.73-31.47,2.61-76.39-16.07-47.29-19.66-40.63-23.39-57.6-26.67-42.76-8.27-61.29,19.95-97.06,13.21-16.48-3.11-39.54-14.19-63.14-52.81l16.2-16.2Z"/>
        </g>
        <g>
          <path class="cls-2" d="M227.41,763.08c11.18,9.57,22.37,19.14,33.55,28.71,0,0-49.03,87.17-187.22,81.09l28.69,200.97-133.84-76.46,10.41-18.22,94.2,53.81-28.04-196.61c19.02,1.39,46.63,1.03,78.02-8.02,54.56-15.73,88.96-48.58,104.22-65.26Z"/>
          <circle class="cls-7" cx="-103.1" cy="707.09" r="136.35"/>
          <circle class="cls-3" cx="167.39" cy="668.61" r="56.08"/>
          <circle class="cls-3" cx="73" cy="585.13" r="31.8"/>
          <polygon class="cls-1" points="148.47 924.64 373.47 837.72 216.56 1156.04 148.47 924.64"/>
        </g>
        <g>
          <path class="cls-2" d="M1426.23,167.39c11.18,9.57,22.37,19.14,33.55,28.71,0,0-49.03,87.17-187.22,81.09l28.69,200.97-133.84-76.46,10.41-18.22,94.2,53.81-28.04-196.61c19.02,1.39,46.63,1.03,78.02-8.02,54.56-15.73,88.96-48.58,104.22-65.26Z"/>
          <circle class="cls-7" cx="1095.72" cy="111.41" r="136.35"/>
          <polygon class="cls-6" points="1041.01 523.52 1020.82 474.03 975.69 502.67 1001.79 456.03 951.27 438.61 1004 429.94 986.12 379.57 1025.78 415.4 1054.01 370.01 1050.73 423.36 1103.82 417.13 1060.06 447.83 1098.03 485.45 1046.75 470.38 1041.01 523.52"/>
          <path class="cls-1" d="M869.1,250.87c7.95,15.3,21.75,35.53,44.59,43.48,35.42,12.32,53.64-18.43,98.67-16.35,57.77,2.67,78.6,55.63,119.26,46.26,23.17-5.34,37.6-27.43,45.4-42.43v51.51c-6.39,5.55-16.39,12.64-29.92,16.07-14.7,3.73-31.47,2.61-76.39-16.07-47.29-19.66-40.63-23.39-57.6-26.67-42.76-8.27-61.29,19.95-97.06,13.21-16.48-3.11-39.54-14.19-63.14-52.81l16.2-16.2Z"/>
        </g>
        <g>
          <path class="cls-2" d="M826.82,465.24c11.18,9.57,22.37,19.14,33.55,28.71,0,0-49.03,87.17-187.22,81.09l28.69,200.97-133.84-76.46,10.41-18.22,94.2,53.81-28.04-196.61c19.02,1.39,46.63,1.03,78.02-8.02,54.56-15.73,88.96-48.58,104.22-65.26Z"/>
          <circle class="cls-7" cx="496.31" cy="409.25" r="136.35"/>
          <circle class="cls-3" cx="766.8" cy="370.76" r="56.08"/>
          <circle class="cls-3" cx="672.41" cy="287.29" r="31.8"/>
          <polygon class="cls-6" points="441.6 821.36 421.41 771.87 376.28 800.52 402.39 753.88 351.86 736.45 404.6 727.78 386.71 677.42 426.38 713.24 454.61 667.86 451.32 721.2 504.41 714.98 460.65 745.67 498.62 783.29 447.34 768.22 441.6 821.36"/>
          <polygon class="cls-1" points="747.87 626.8 972.88 539.87 815.97 858.2 747.87 626.8"/>
          <path class="cls-1" d="M269.7,548.72c7.95,15.3,21.75,35.53,44.59,43.48,35.42,12.32,53.64-18.43,98.67-16.35,57.77,2.67,78.6,55.63,119.26,46.26,23.17-5.34,37.6-27.43,45.4-42.43v51.51c-6.39,5.55-16.39,12.64-29.92,16.07-14.7,3.73-31.47,2.61-76.39-16.07-47.29-19.66-40.63-23.39-57.6-26.67-42.76-8.27-61.29,19.95-97.06,13.21-16.48-3.11-39.54-14.19-63.14-52.81l16.2-16.2Z"/>
        </g>
        <g>
          <path class="cls-2" d="M227.41,167.39c11.18,9.57,22.37,19.14,33.55,28.71,0,0-49.03,87.17-187.22,81.09l28.69,200.97L-31.4,401.7l10.41-18.22,94.2,53.81-28.04-196.61c19.02,1.39,46.63,1.03,78.02-8.02,54.56-15.73,88.96-48.58,104.22-65.26Z"/>
          <circle class="cls-7" cx="-103.1" cy="111.41" r="136.35"/>
          <circle class="cls-3" cx="167.39" cy="72.92" r="56.08"/>
          <circle class="cls-3" cx="73" cy="-10.56" r="31.8"/>
          <polygon class="cls-1" points="148.47 328.96 373.47 242.03 216.56 560.36 148.47 328.96"/>
        </g>
        <g>
          <path class="cls-2" d="M826.82-130.45c11.18,9.57,22.37,19.14,33.55,28.71,0,0-49.03,87.17-187.22,81.09l28.69,200.97-133.84-76.46,10.41-18.22,94.2,53.81-28.04-196.61c19.02,1.39,46.63,1.03,78.02-8.02,54.56-15.73,88.96-48.58,104.22-65.26Z"/>
          <polygon class="cls-6" points="441.6 225.67 421.41 176.19 376.28 204.83 402.39 158.19 351.86 140.77 404.6 132.09 386.71 81.73 426.38 117.55 454.61 72.17 451.32 125.52 504.41 119.29 460.65 149.99 498.62 187.6 447.34 172.54 441.6 225.67"/>
          <polygon class="cls-1" points="747.87 31.11 972.88 -55.81 815.97 262.51 747.87 31.11"/>
          <path class="cls-1" d="M269.7-46.97c7.95,15.3,21.75,35.53,44.59,43.48,35.42,12.32,53.64-18.43,98.67-16.35,57.77,2.67,78.6,55.63,119.26,46.26,23.17-5.34,37.6-27.43,45.4-42.43v51.51c-6.39,5.55-16.39,12.64-29.92,16.07-14.7,3.73-31.47,2.61-76.39-16.07-47.29-19.66-40.63-23.39-57.6-26.67-42.76-8.27-61.29,19.95-97.06,13.21-16.48-3.11-39.54-14.19-63.14-52.81l16.2-16.2Z"/>
        </g>
      </g>
    </pattern>
  </defs>
  <g id="Camada_1-2" data-name="Camada 1">
    <rect class="cls-5" width="824.81" height="824.81"/>
  </g>
</svg>