<?xml version="1.0" encoding="UTF-8"?>
<svg id="Camada_2" data-name="Camada 2" xmlns="http://www.w3.org/2000/svg" viewBox="0 0 1005.92 829.19">
  <defs>
    <style>
      .cls-1 {
        fill: #8372b2;
      }

      .cls-2 {
        fill: #33276a;
      }

      .cls-3 {
        fill: none;
        stroke: #a68a55;
        stroke-miterlimit: 10;
        stroke-width: 10px;
      }

      .cls-4 {
        fill: #7965aa;
      }

      .cls-5 {
        fill: #1e183b;
      }

      .cls-6 {
        fill: #a68a55;
      }
    </style>
  </defs>
  <g id="Camada_1-2" data-name="Camada 1">
    <path class="cls-2" d="M771.3,214.75c11.18,9.57,22.37,19.14,33.55,28.71,0,0-49.03,87.17-187.22,81.09l28.69,200.97-133.84-76.46,10.41-18.22,94.2,53.81-28.04-196.61c19.02,1.39,46.63,1.03,78.02-8.02,54.56-15.73,88.96-48.58,104.22-65.26Z"/>
    <circle class="cls-6" cx="440.78" cy="158.76" r="136.35"/>
    <circle class="cls-3" cx="711.27" cy="120.28" r="56.08"/>
    <circle class="cls-3" cx="616.88" cy="36.8" r="31.8"/>
    <polygon class="cls-5" points="386.07 570.87 365.88 521.39 320.76 550.03 346.86 503.39 296.33 485.97 349.07 477.3 331.19 426.93 370.85 462.75 399.08 417.37 395.8 470.72 448.88 464.49 405.13 495.19 443.09 532.81 391.81 517.74 386.07 570.87"/>
    <polygon class="cls-1" points="692.35 376.32 917.35 289.39 760.44 607.72 692.35 376.32"/>
    <path class="cls-1" d="M214.17,298.23c7.95,15.3,21.75,35.53,44.59,43.48,35.42,12.32,53.64-18.43,98.67-16.35,57.77,2.67,78.6,55.63,119.26,46.26,23.17-5.34,37.6-27.43,45.4-42.43v51.51c-6.39,5.55-16.39,12.64-29.92,16.07-14.7,3.73-31.47,2.61-76.39-16.07-47.29-19.66-40.63-23.39-57.6-26.67-42.76-8.27-61.29,19.95-97.06,13.21-16.48-3.11-39.54-14.19-63.14-52.81l16.2-16.2Z"/>
    <path class="cls-2" d="M389.39,742.76c-1.22.58-2.44,1.15-3.67,1.73-106.25,49.98-225.5,78.45-343.55,64.47-30.07-37.22-49.04-81.42-39.84-130.09,7.23-38.25,33.58-84.83,73.02-96.01-11.04,32.8-23.23,93.65,19.29,108.58,28.18,9.88,52.16.93,50.56-31.85-1.61-32.72-12.48-55.67-1.87-90.48,9.8-32.11,46.96-67.84,80.16-74.54,1.74-.35,4.87-1.32,4.03,1.53-8.29,21.57-20.93,48.75-18.52,72.25,4.37,42.71,66.76,58.39,59.33,108.29-2.82,18.91-26.27,48.54,4.08,54.1,9.17,1.69,15.9-.15,24.4-3.16,46.49-16.43,53.5-77.43,48.02-119.77,21.65,8.94,38.86,31.72,45.24,53.93,7.15,24.89,8.71,56.42-.68,81.02Z"/>
    <path class="cls-4" d="M912.28,767.58c-57.95,36.62-132.29,58.63-200.54,61.37-67.98,2.73-170.03-17.42-181.89-98.94-8.7-59.81,36.78-100.36,84.48-125.84-.32.68-.64,1.35-.94,2.03-5.27,11.49-9.29,23.32-11.94,35.75-.21,1-.36,2.14-.49,3.35-.39,3.58-.59,7.73-1.68,10.19-.08.19-.19.39-.33.62-2.08,3.5-9.96,11.05-12.69,14.91-6.24,8.83-10.46,18.2-12.29,27.56-1.29,6.58-1.39,13.16-.17,19.51,2.15,11.21,8.41,21.75,19.53,30.51,7.43,5.85,15.59,9.83,24.13,12.91,3.71,1.34,7.5,2.51,11.33,3.58,4.06,1.14,8.17,2.19,12.29,3.21,11.01,2.75,22.04,6.18,33.54,6.41l-.43-.53c67.53,8,135.75-8.29,196.52-36.88.7-.33,1.4-.66,2.1-.99-.17.43-.34.86-.51,1.29,23.88-10.5,48.35-24.61,67.8-42.1,24.84-22.34,46.72-62.76,14.62-89.2-1.52-.27-1.04.56-1.02,1.48h0c0,.11,0,.22-.01.33-.55,3.98-2.57,19.99-5.33,21.79-.76.49-1.52.69-2.29.65-3.66-.14-7.3-5.43-9.54-7.83-6.36-6.85-9.62-10.24-17.2-15.98-13.46-10.18-28.12-18.48-42.02-27.92l1.26-.51,27.99-11.25c2.75-.96,5.49-2.01,8.23-3.12.01,0,.03-.01.05-.02,6.53-2.65,13.01-5.63,19.5-8.57,8.25-3.74,16.5-7.41,24.86-10.24,4.6-1.56,7.77-3.32,7.26,3.67l-5.55,24.98c19.87,11.46,37.66,26.19,43.1,49.63,13.48,58.07-47.51,116.25-91.74,144.19Z"/>
  </g>
</svg>