<?xml version="1.0" encoding="UTF-8"?>
<svg id="Camada_2" data-name="Camada 2" xmlns="http://www.w3.org/2000/svg" viewBox="0 0 456.66 263.05">
  <defs>
    <style>
      .cls-1 {
        fill: #8372b2;
      }

      .cls-2 {
        fill: #33276a;
      }
    </style>
  </defs>
  <g id="Camada_1-2" data-name="Camada 1">
    <g>
      <path class="cls-1" d="M331.43,204.75c-29.27-.4-54.2-5.88-53.77-35.84v-4.53c-.42-30.24,24.5-35.44,53.77-35.84,24.64,0,45.03,4.23,51.74,22.3h73.5c-4.51-61.99-58.99-80.61-125.24-80.75-28.45.12-54.84,3.59-76.02,12.49-1.39,9.85-4.86,19-10.38,27.38-7.25,11.08-16.96,19.56-29.01,25.18l40.11,51.6h-49.62c6.77,58.83,60.6,76.2,124.91,76.32,66.24,0,120.72-18.62,125.24-80.75h-73.5c-6.57,18.07-27.1,22.44-51.74,22.44Z"/>
      <path class="cls-2" d="M173.41,0c37.09-.4,68.56,30.8,68.03,68.03,0,13.52-3.62,25.84-10.85,36.82-7.1,10.85-16.61,19.15-28.39,24.64l39.24,50.48h-74.72l-33.88-43.92h-62.67v43.92H0V0h173.41ZM70.17,52.63v30.67h85.57c4.29,0,7.9-1.47,10.85-4.42,3.08-3.08,4.55-6.7,4.55-10.85,0-8.57-6.83-15.4-15.4-15.4h-85.57Z"/>
    </g>
  </g>
</svg>