<?xml version="1.0" encoding="UTF-8"?>
<svg id="Camada_2" data-name="Camada 2" xmlns="http://www.w3.org/2000/svg" xmlns:xlink="http://www.w3.org/1999/xlink" viewBox="0 0 3810.24 3807.41">
  <defs>
    <style>
      .cls-1 {
        fill: #8372b2;
      }

      .cls-2 {
        fill: #33276a;
      }

      .cls-3 {
        fill: url(#Novo_padrão_2);
      }

      .cls-4 {
        stroke: #a68a55;
        stroke-miterlimit: 10;
        stroke-width: 10px;
      }

      .cls-4, .cls-5 {
        fill: none;
      }

      .cls-6 {
        fill: url(#Novo_padrão);
      }

      .cls-7 {
        fill: #282351;
      }

      .cls-8 {
        fill: #7965aa;
      }

      .cls-9 {
        fill: #1e183b;
      }

      .cls-10 {
        fill: #a68a55;
      }

      .cls-11 {
        fill: url(#Novo_padrão_3);
      }
    </style>
    <pattern id="Novo_padrão_2" data-name="Novo padrão 2" x="0" y="0" width="1575.84" height="1328.77" patternTransform="translate(2068.54 -5592.98) scale(.27)" patternUnits="userSpaceOnUse" viewBox="0 0 1575.84 1328.77">
      <g>
        <rect class="cls-5" width="1575.84" height="1328.77"/>
        <g>
          <g>
            <path class="cls-1" d="M942.76,1248.02h73.5c-4.51,62.13-58.99,80.75-125.24,80.75-64.31-.12-118.14-17.49-124.91-76.32h49.62l-40.11-51.6c12.05-5.62,21.76-14.1,29.01-25.18,5.52-8.38,8.99-17.53,10.38-27.38,21.17-8.91,47.57-12.37,76.02-12.49,66.24.14,120.72,18.76,125.24,80.75h-73.5c-6.71-18.07-27.1-22.3-51.74-22.3-29.27.4-54.2,5.6-53.77,35.84v4.53c-.42,29.96,24.5,35.44,53.77,35.84,24.64,0,45.17-4.37,51.74-22.44Z"/>
            <path class="cls-2" d="M559.59,1065.72v179.98h70.17v-43.92h62.67l33.88,43.92h74.72l-39.24-50.48c11.78-5.49,21.29-13.79,28.39-24.64,7.23-10.98,10.85-23.3,10.85-36.82.54-37.23-30.93-68.43-68.03-68.03h-173.41ZM715.33,1118.34c8.57,0,15.4,6.83,15.4,15.4,0,4.15-1.47,7.77-4.55,10.85-2.95,2.95-6.56,4.42-10.85,4.42h-85.57v-30.67h85.57Z"/>
          </g>
          <g>
            <path class="cls-2" d="M1463.34,1418.02h73.5c-4.51,62.13-58.99,80.75-125.24,80.75-64.31-.12-118.14-17.49-124.91-76.32h49.62l-40.11-51.6c12.05-5.62,21.76-14.1,29.01-25.18,5.52-8.38,8.99-17.53,10.38-27.38,21.17-8.91,47.57-12.37,76.02-12.49,66.24.14,120.72,18.76,125.24,80.75h-73.5c-6.71-18.07-27.1-22.3-51.74-22.3-29.27.4-54.2,5.6-53.77,35.84v4.53c-.42,29.96,24.5,35.44,53.77,35.84,24.64,0,45.17-4.37,51.74-22.44Z"/>
            <path class="cls-2" d="M1080.18,1235.72v179.98h70.17v-43.92h62.67l33.88,43.92h74.72l-39.24-50.48c11.78-5.49,21.29-13.79,28.39-24.64,7.23-10.98,10.85-23.3,10.85-36.82.54-37.23-30.93-68.43-68.03-68.03h-173.41ZM1235.92,1288.34c8.57,0,15.4,6.83,15.4,15.4,0,4.15-1.47,7.77-4.55,10.85-2.95,2.95-6.56,4.42-10.85,4.42h-85.57v-30.67h85.57Z"/>
          </g>
          <g>
            <path class="cls-10" d="M431.17,1332.32h73.5c-4.51,62.13-58.99,80.75-125.24,80.75-64.31-.12-118.14-17.49-124.91-76.32h49.62l-40.11-51.6c12.05-5.62,21.76-14.1,29.01-25.18,5.52-8.38,8.99-17.53,10.38-27.38,21.17-8.91,47.57-12.37,76.02-12.49,66.24.14,120.72,18.76,125.24,80.75h-73.5c-6.71-18.07-27.1-22.3-51.74-22.3-29.27.4-54.2,5.6-53.77,35.84v4.53c-.42,29.96,24.5,35.44,53.77,35.84,24.64,0,45.17-4.37,51.74-22.44Z"/>
            <path class="cls-10" d="M48,1150.02v179.98h70.17v-43.92h62.67l33.88,43.92h74.72l-39.24-50.48c11.78-5.49,21.29-13.79,28.39-24.64,7.23-10.98,10.85-23.3,10.85-36.82.54-37.23-30.93-68.43-68.03-68.03H48ZM203.74,1202.64c8.57,0,15.4,6.83,15.4,15.4,0,4.15-1.47,7.77-4.55,10.85-2.95,2.95-6.56,4.42-10.85,4.42h-85.57v-30.67h85.57Z"/>
          </g>
        </g>
        <g>
          <g>
            <path class="cls-1" d="M942.76,982.26h73.5c-4.51,62.13-58.99,80.75-125.24,80.75-64.31-.12-118.14-17.49-124.91-76.32h49.62l-40.11-51.6c12.05-5.62,21.76-14.1,29.01-25.18,5.52-8.38,8.99-17.53,10.38-27.38,21.17-8.91,47.57-12.37,76.02-12.49,66.24.14,120.72,18.76,125.24,80.75h-73.5c-6.71-18.07-27.1-22.3-51.74-22.3-29.27.4-54.2,5.6-53.77,35.84v4.53c-.42,29.96,24.5,35.44,53.77,35.84,24.64,0,45.17-4.37,51.74-22.44Z"/>
            <path class="cls-2" d="M559.59,799.96v179.98h70.17v-43.92h62.67l33.88,43.92h74.72l-39.24-50.48c11.78-5.49,21.29-13.79,28.39-24.64,7.23-10.98,10.85-23.3,10.85-36.82.54-37.23-30.93-68.43-68.03-68.03h-173.41ZM715.33,852.59c8.57,0,15.4,6.83,15.4,15.4,0,4.15-1.47,7.77-4.55,10.85-2.95,2.95-6.56,4.42-10.85,4.42h-85.57v-30.67h85.57Z"/>
          </g>
          <g>
            <path class="cls-2" d="M1463.34,1152.26h73.5c-4.51,62.13-58.99,80.75-125.24,80.75-64.31-.12-118.14-17.49-124.91-76.32h49.62l-40.11-51.6c12.05-5.62,21.76-14.1,29.01-25.18,5.52-8.38,8.99-17.53,10.38-27.38,21.17-8.91,47.57-12.37,76.02-12.49,66.24.14,120.72,18.76,125.24,80.75h-73.5c-6.71-18.07-27.1-22.3-51.74-22.3-29.27.4-54.2,5.6-53.77,35.84v4.53c-.42,29.96,24.5,35.44,53.77,35.84,24.64,0,45.17-4.37,51.74-22.44Z"/>
            <path class="cls-2" d="M1080.18,969.96v179.98h70.17v-43.92h62.67l33.88,43.92h74.72l-39.24-50.48c11.78-5.49,21.29-13.79,28.39-24.64,7.23-10.98,10.85-23.3,10.85-36.82.54-37.23-30.93-68.43-68.03-68.03h-173.41ZM1235.92,1022.59c8.57,0,15.4,6.83,15.4,15.4,0,4.15-1.47,7.77-4.55,10.85-2.95,2.95-6.56,4.42-10.85,4.42h-85.57v-30.67h85.57Z"/>
          </g>
          <g>
            <path class="cls-10" d="M431.17,1066.56h73.5c-4.51,62.13-58.99,80.75-125.24,80.75-64.31-.12-118.14-17.49-124.91-76.32h49.62l-40.11-51.6c12.05-5.62,21.76-14.1,29.01-25.18,5.52-8.38,8.99-17.53,10.38-27.38,21.17-8.91,47.57-12.37,76.02-12.49,66.24.14,120.72,18.76,125.24,80.75h-73.5c-6.71-18.07-27.1-22.3-51.74-22.3-29.27.4-54.2,5.6-53.77,35.84v4.53c-.42,29.96,24.5,35.44,53.77,35.84,24.64,0,45.17-4.37,51.74-22.44Z"/>
            <path class="cls-10" d="M48,884.26v179.98h70.17v-43.92h62.67l33.88,43.92h74.72l-39.24-50.48c11.78-5.49,21.29-13.79,28.39-24.64,7.23-10.98,10.85-23.3,10.85-36.82.54-37.23-30.93-68.43-68.03-68.03H48ZM203.74,936.89c8.57,0,15.4,6.83,15.4,15.4,0,4.15-1.47,7.77-4.55,10.85-2.95,2.95-6.56,4.42-10.85,4.42h-85.57v-30.67h85.57Z"/>
          </g>
        </g>
        <g>
          <g>
            <path class="cls-1" d="M942.76,716.51h73.5c-4.51,62.13-58.99,80.75-125.24,80.75-64.31-.12-118.14-17.49-124.91-76.32h49.62l-40.11-51.6c12.05-5.62,21.76-14.1,29.01-25.18,5.52-8.38,8.99-17.53,10.38-27.38,21.17-8.91,47.57-12.37,76.02-12.49,66.24.14,120.72,18.76,125.24,80.75h-73.5c-6.71-18.07-27.1-22.3-51.74-22.3-29.27.4-54.2,5.6-53.77,35.84v4.53c-.42,29.96,24.5,35.44,53.77,35.84,24.64,0,45.17-4.37,51.74-22.44Z"/>
            <path class="cls-2" d="M559.59,534.21v179.98h70.17v-43.92h62.67l33.88,43.92h74.72l-39.24-50.48c11.78-5.49,21.29-13.79,28.39-24.64,7.23-10.98,10.85-23.3,10.85-36.82.54-37.23-30.93-68.43-68.03-68.03h-173.41ZM715.33,586.84c8.57,0,15.4,6.83,15.4,15.4,0,4.15-1.47,7.77-4.55,10.85-2.95,2.95-6.56,4.42-10.85,4.42h-85.57v-30.67h85.57Z"/>
          </g>
          <g>
            <path class="cls-2" d="M1463.34,886.51h73.5c-4.51,62.13-58.99,80.75-125.24,80.75-64.31-.12-118.14-17.49-124.91-76.32h49.62l-40.11-51.6c12.05-5.62,21.76-14.1,29.01-25.18,5.52-8.38,8.99-17.53,10.38-27.38,21.17-8.91,47.57-12.37,76.02-12.49,66.24.14,120.72,18.76,125.24,80.75h-73.5c-6.71-18.07-27.1-22.3-51.74-22.3-29.27.4-54.2,5.6-53.77,35.84v4.53c-.42,29.96,24.5,35.44,53.77,35.84,24.64,0,45.17-4.37,51.74-22.44Z"/>
            <path class="cls-2" d="M1080.18,704.21v179.98h70.17v-43.92h62.67l33.88,43.92h74.72l-39.24-50.48c11.78-5.49,21.29-13.79,28.39-24.64,7.23-10.98,10.85-23.3,10.85-36.82.54-37.23-30.93-68.43-68.03-68.03h-173.41ZM1235.92,756.84c8.57,0,15.4,6.83,15.4,15.4,0,4.15-1.47,7.77-4.55,10.85-2.95,2.95-6.56,4.42-10.85,4.42h-85.57v-30.67h85.57Z"/>
          </g>
          <g>
            <path class="cls-10" d="M431.17,800.81h73.5c-4.51,62.13-58.99,80.75-125.24,80.75-64.31-.12-118.14-17.49-124.91-76.32h49.62l-40.11-51.6c12.05-5.62,21.76-14.1,29.01-25.18,5.52-8.38,8.99-17.53,10.38-27.38,21.17-8.91,47.57-12.37,76.02-12.49,66.24.14,120.72,18.76,125.24,80.75h-73.5c-6.71-18.07-27.1-22.3-51.74-22.3-29.27.4-54.2,5.6-53.77,35.84v4.53c-.42,29.96,24.5,35.44,53.77,35.84,24.64,0,45.17-4.37,51.74-22.44Z"/>
            <path class="cls-10" d="M48,618.51v179.98h70.17v-43.92h62.67l33.88,43.92h74.72l-39.24-50.48c11.78-5.49,21.29-13.79,28.39-24.64,7.23-10.98,10.85-23.3,10.85-36.82.54-37.23-30.93-68.43-68.03-68.03H48ZM203.74,671.14c8.57,0,15.4,6.83,15.4,15.4,0,4.15-1.47,7.77-4.55,10.85-2.95,2.95-6.56,4.42-10.85,4.42h-85.57v-30.67h85.57Z"/>
          </g>
        </g>
        <g>
          <g>
            <path class="cls-1" d="M942.76,450.76h73.5c-4.51,62.13-58.99,80.75-125.24,80.75-64.31-.12-118.14-17.49-124.91-76.32h49.62l-40.11-51.6c12.05-5.62,21.76-14.1,29.01-25.18,5.52-8.38,8.99-17.53,10.38-27.38,21.17-8.91,47.57-12.37,76.02-12.49,66.24.14,120.72,18.76,125.24,80.75h-73.5c-6.71-18.07-27.1-22.3-51.74-22.3-29.27.4-54.2,5.6-53.77,35.84v4.53c-.42,29.96,24.5,35.44,53.77,35.84,24.64,0,45.17-4.37,51.74-22.44Z"/>
            <path class="cls-2" d="M559.59,268.46v179.98h70.17v-43.92h62.67l33.88,43.92h74.72l-39.24-50.48c11.78-5.49,21.29-13.79,28.39-24.64,7.23-10.98,10.85-23.3,10.85-36.82.54-37.23-30.93-68.43-68.03-68.03h-173.41ZM715.33,321.08c8.57,0,15.4,6.83,15.4,15.4,0,4.15-1.47,7.77-4.55,10.85-2.95,2.95-6.56,4.42-10.85,4.42h-85.57v-30.67h85.57Z"/>
          </g>
          <g>
            <path class="cls-2" d="M1463.34,620.76h73.5c-4.51,62.13-58.99,80.75-125.24,80.75-64.31-.12-118.14-17.49-124.91-76.32h49.62l-40.11-51.6c12.05-5.62,21.76-14.1,29.01-25.18,5.52-8.38,8.99-17.53,10.38-27.38,21.17-8.91,47.57-12.37,76.02-12.49,66.24.14,120.72,18.76,125.24,80.75h-73.5c-6.71-18.07-27.1-22.3-51.74-22.3-29.27.4-54.2,5.6-53.77,35.84v4.53c-.42,29.96,24.5,35.44,53.77,35.84,24.64,0,45.17-4.37,51.74-22.44Z"/>
            <path class="cls-2" d="M1080.18,438.46v179.98h70.17v-43.92h62.67l33.88,43.92h74.72l-39.24-50.48c11.78-5.49,21.29-13.79,28.39-24.64,7.23-10.98,10.85-23.3,10.85-36.82.54-37.23-30.93-68.43-68.03-68.03h-173.41ZM1235.92,491.08c8.57,0,15.4,6.83,15.4,15.4,0,4.15-1.47,7.77-4.55,10.85-2.95,2.95-6.56,4.42-10.85,4.42h-85.57v-30.67h85.57Z"/>
          </g>
          <g>
            <path class="cls-10" d="M431.17,535.06h73.5c-4.51,62.13-58.99,80.75-125.24,80.75-64.31-.12-118.14-17.49-124.91-76.32h49.62l-40.11-51.6c12.05-5.62,21.76-14.1,29.01-25.18,5.52-8.38,8.99-17.53,10.38-27.38,21.17-8.91,47.57-12.37,76.02-12.49,66.24.14,120.72,18.76,125.24,80.75h-73.5c-6.71-18.07-27.1-22.3-51.74-22.3-29.27.4-54.2,5.6-53.77,35.84v4.53c-.42,29.96,24.5,35.44,53.77,35.84,24.64,0,45.17-4.37,51.74-22.44Z"/>
            <path class="cls-10" d="M48,352.76v179.98h70.17v-43.92h62.67l33.88,43.92h74.72l-39.24-50.48c11.78-5.49,21.29-13.79,28.39-24.64,7.23-10.98,10.85-23.3,10.85-36.82.54-37.23-30.93-68.43-68.03-68.03H48ZM203.74,405.38c8.57,0,15.4,6.83,15.4,15.4,0,4.15-1.47,7.77-4.55,10.85-2.95,2.95-6.56,4.42-10.85,4.42h-85.57v-30.67h85.57Z"/>
          </g>
        </g>
        <g>
          <g>
            <path class="cls-1" d="M942.76,185h73.5c-4.51,62.13-58.99,80.75-125.24,80.75-64.31-.12-118.14-17.49-124.91-76.32h49.62l-40.11-51.6c12.05-5.62,21.76-14.1,29.01-25.18,5.52-8.38,8.99-17.53,10.38-27.38,21.17-8.91,47.57-12.37,76.02-12.49,66.24.14,120.72,18.76,125.24,80.75h-73.5c-6.71-18.07-27.1-22.3-51.74-22.3-29.27.4-54.2,5.6-53.77,35.84v4.53c-.42,29.96,24.5,35.44,53.77,35.84,24.64,0,45.17-4.37,51.74-22.44Z"/>
            <path class="cls-2" d="M559.59,2.7v179.98h70.17v-43.92h62.67l33.88,43.92h74.72l-39.24-50.48c11.78-5.49,21.29-13.79,28.39-24.64,7.23-10.98,10.85-23.3,10.85-36.82.54-37.23-30.93-68.43-68.03-68.03h-173.41ZM715.33,55.33c8.57,0,15.4,6.83,15.4,15.4,0,4.15-1.47,7.77-4.55,10.85-2.95,2.95-6.56,4.42-10.85,4.42h-85.57v-30.67h85.57Z"/>
          </g>
          <g>
            <path class="cls-2" d="M1463.34,355h73.5c-4.51,62.13-58.99,80.75-125.24,80.75-64.31-.12-118.14-17.49-124.91-76.32h49.62l-40.11-51.6c12.05-5.62,21.76-14.1,29.01-25.18,5.52-8.38,8.99-17.53,10.38-27.38,21.17-8.91,47.57-12.37,76.02-12.49,66.24.14,120.72,18.76,125.24,80.75h-73.5c-6.71-18.07-27.1-22.3-51.74-22.3-29.27.4-54.2,5.6-53.77,35.84v4.53c-.42,29.96,24.5,35.44,53.77,35.84,24.64,0,45.17-4.37,51.74-22.44Z"/>
            <path class="cls-2" d="M1080.18,172.7v179.98h70.17v-43.92h62.67l33.88,43.92h74.72l-39.24-50.48c11.78-5.49,21.29-13.79,28.39-24.64,7.23-10.98,10.85-23.3,10.85-36.82.54-37.23-30.93-68.43-68.03-68.03h-173.41ZM1235.92,225.33c8.57,0,15.4,6.83,15.4,15.4,0,4.15-1.47,7.77-4.55,10.85-2.95,2.95-6.56,4.42-10.85,4.42h-85.57v-30.67h85.57Z"/>
          </g>
          <g>
            <path class="cls-10" d="M431.17,269.3h73.5c-4.51,62.13-58.99,80.75-125.24,80.75-64.31-.12-118.14-17.49-124.91-76.32h49.62l-40.11-51.6c12.05-5.62,21.76-14.1,29.01-25.18,5.52-8.38,8.99-17.53,10.38-27.38,21.17-8.91,47.57-12.37,76.02-12.49,66.24.14,120.72,18.76,125.24,80.75h-73.5c-6.71-18.07-27.1-22.3-51.74-22.3-29.27.4-54.2,5.6-53.77,35.84v4.53c-.42,29.96,24.5,35.44,53.77,35.84,24.64,0,45.17-4.37,51.74-22.44Z"/>
            <path class="cls-10" d="M48,87v179.98h70.17v-43.92h62.67l33.88,43.92h74.72l-39.24-50.48c11.78-5.49,21.29-13.79,28.39-24.64,7.23-10.98,10.85-23.3,10.85-36.82.54-37.23-30.93-68.43-68.03-68.03H48ZM203.74,139.63c8.57,0,15.4,6.83,15.4,15.4,0,4.15-1.47,7.77-4.55,10.85-2.95,2.95-6.56,4.42-10.85,4.42h-85.57v-30.67h85.57Z"/>
          </g>
        </g>
        <g>
          <g>
            <path class="cls-2" d="M1463.34,89.25h73.5c-4.51,62.13-58.99,80.75-125.24,80.75-64.31-.12-118.14-17.49-124.91-76.32h49.62l-40.11-51.6c12.05-5.62,21.76-14.1,29.01-25.18,5.52-8.38,8.99-17.53,10.38-27.38,21.17-8.91,47.57-12.37,76.02-12.49,66.24.14,120.72,18.76,125.24,80.75h-73.5c-6.71-18.07-27.1-22.3-51.74-22.3-29.27.4-54.2,5.6-53.77,35.84v4.53c-.42,29.96,24.5,35.44,53.77,35.84,24.64,0,45.17-4.37,51.74-22.44Z"/>
            <path class="cls-2" d="M1080.18-93.05V86.93h70.17v-43.92h62.67l33.88,43.92h74.72l-39.24-50.48c11.78-5.49,21.29-13.79,28.39-24.64,7.23-10.98,10.85-23.3,10.85-36.82.54-37.23-30.93-68.43-68.03-68.03h-173.41ZM1235.92-40.42c8.57,0,15.4,6.83,15.4,15.4,0,4.15-1.47,7.77-4.55,10.85-2.95,2.95-6.56,4.42-10.85,4.42h-85.57v-30.67h85.57Z"/>
          </g>
          <g>
            <path class="cls-10" d="M431.17,3.55h73.5c-4.51,62.13-58.99,80.75-125.24,80.75-64.31-.12-118.14-17.49-124.91-76.32h49.62l-40.11-51.6c12.05-5.62,21.76-14.1,29.01-25.18,5.52-8.38,8.99-17.53,10.38-27.38,21.17-8.91,47.57-12.37,76.02-12.49,66.24.14,120.72,18.76,125.24,80.75h-73.5c-6.71-18.07-27.1-22.3-51.74-22.3-29.27.4-54.2,5.6-53.77,35.84v4.53c-.42,29.96,24.5,35.44,53.77,35.84,24.64,0,45.17-4.37,51.74-22.44Z"/>
            <path class="cls-10" d="M48-178.75V1.23h70.17v-43.92h62.67L214.72,1.23h74.72l-39.24-50.48c11.78-5.49,21.29-13.79,28.39-24.64,7.23-10.98,10.85-23.3,10.85-36.82.54-37.23-30.93-68.43-68.03-68.03H48ZM203.74-126.12c8.57,0,15.4,6.83,15.4,15.4,0,4.15-1.47,7.77-4.55,10.85-2.95,2.95-6.56,4.42-10.85,4.42h-85.57v-30.67h85.57Z"/>
          </g>
        </g>
      </g>
    </pattern>
    <pattern id="Novo_padrão" data-name="Novo padrão" x="0" y="0" width="1198.82" height="1191.37" patternTransform="translate(2068.54 -5592.98) scale(.27)" patternUnits="userSpaceOnUse" viewBox="0 0 1198.82 1191.37">
      <g>
        <rect class="cls-5" width="1198.82" height="1191.37"/>
        <circle class="cls-10" cx="1095.72" cy="1302.78" r="136.35"/>
        <g>
          <circle class="cls-10" cx="-103.1" cy="1302.78" r="136.35"/>
          <circle class="cls-4" cx="73" cy="1180.82" r="31.8"/>
        </g>
        <g>
          <path class="cls-2" d="M1426.23,763.08c11.18,9.57,22.37,19.14,33.55,28.71,0,0-49.03,87.17-187.22,81.09l28.69,200.97-133.84-76.46,10.41-18.22,94.2,53.81-28.04-196.61c19.02,1.39,46.63,1.03,78.02-8.02,54.56-15.73,88.96-48.58,104.22-65.26Z"/>
          <circle class="cls-10" cx="1095.72" cy="707.09" r="136.35"/>
          <polygon class="cls-9" points="1041.01 1119.2 1020.82 1069.72 975.69 1098.36 1001.79 1051.72 951.27 1034.3 1004 1025.63 986.12 975.26 1025.78 1011.08 1054.01 965.7 1050.73 1019.05 1103.82 1012.82 1060.06 1043.52 1098.03 1081.14 1046.75 1066.07 1041.01 1119.2"/>
          <path class="cls-1" d="M869.1,846.56c7.95,15.3,21.75,35.53,44.59,43.48,35.42,12.32,53.64-18.43,98.67-16.35,57.77,2.67,78.6,55.63,119.26,46.26,23.17-5.34,37.6-27.43,45.4-42.43v51.51c-6.39,5.55-16.39,12.64-29.92,16.07-14.7,3.73-31.47,2.61-76.39-16.07-47.29-19.66-40.63-23.39-57.6-26.67-42.76-8.27-61.29,19.95-97.06,13.21-16.48-3.11-39.54-14.19-63.14-52.81l16.2-16.2Z"/>
        </g>
        <g>
          <path class="cls-2" d="M826.82,1060.92c11.18,9.57,22.37,19.14,33.55,28.71,0,0-49.03,87.17-187.22,81.09l28.69,200.97-133.84-76.46,10.41-18.22,94.2,53.81-28.04-196.61c19.02,1.39,46.63,1.03,78.02-8.02,54.56-15.73,88.96-48.58,104.22-65.26Z"/>
          <circle class="cls-10" cx="496.31" cy="1004.94" r="136.35"/>
          <circle class="cls-4" cx="766.8" cy="966.45" r="56.08"/>
          <circle class="cls-4" cx="672.41" cy="882.97" r="31.8"/>
          <polygon class="cls-1" points="747.87 1222.49 972.88 1135.56 815.97 1453.89 747.87 1222.49"/>
          <path class="cls-1" d="M269.7,1144.4c7.95,15.3,21.75,35.53,44.59,43.48,35.42,12.32,53.64-18.43,98.67-16.35,57.77,2.67,78.6,55.63,119.26,46.26,23.17-5.34,37.6-27.43,45.4-42.43v51.51c-6.39,5.55-16.39,12.64-29.92,16.07-14.7,3.73-31.47,2.61-76.39-16.07-47.29-19.66-40.63-23.39-57.6-26.67-42.76-8.27-61.29,19.95-97.06,13.21-16.48-3.11-39.54-14.19-63.14-52.81l16.2-16.2Z"/>
        </g>
        <g>
          <path class="cls-2" d="M227.41,763.08c11.18,9.57,22.37,19.14,33.55,28.71,0,0-49.03,87.17-187.22,81.09l28.69,200.97-133.84-76.46,10.41-18.22,94.2,53.81-28.04-196.61c19.02,1.39,46.63,1.03,78.02-8.02,54.56-15.73,88.96-48.58,104.22-65.26Z"/>
          <circle class="cls-10" cx="-103.1" cy="707.09" r="136.35"/>
          <circle class="cls-4" cx="167.39" cy="668.61" r="56.08"/>
          <circle class="cls-4" cx="73" cy="585.13" r="31.8"/>
          <polygon class="cls-1" points="148.47 924.64 373.47 837.72 216.56 1156.04 148.47 924.64"/>
        </g>
        <g>
          <path class="cls-2" d="M1426.23,167.39c11.18,9.57,22.37,19.14,33.55,28.71,0,0-49.03,87.17-187.22,81.09l28.69,200.97-133.84-76.46,10.41-18.22,94.2,53.81-28.04-196.61c19.02,1.39,46.63,1.03,78.02-8.02,54.56-15.73,88.96-48.58,104.22-65.26Z"/>
          <circle class="cls-10" cx="1095.72" cy="111.41" r="136.35"/>
          <polygon class="cls-9" points="1041.01 523.52 1020.82 474.03 975.69 502.67 1001.79 456.03 951.27 438.61 1004 429.94 986.12 379.57 1025.78 415.4 1054.01 370.01 1050.73 423.36 1103.82 417.13 1060.06 447.83 1098.03 485.45 1046.75 470.38 1041.01 523.52"/>
          <path class="cls-1" d="M869.1,250.87c7.95,15.3,21.75,35.53,44.59,43.48,35.42,12.32,53.64-18.43,98.67-16.35,57.77,2.67,78.6,55.63,119.26,46.26,23.17-5.34,37.6-27.43,45.4-42.43v51.51c-6.39,5.55-16.39,12.64-29.92,16.07-14.7,3.73-31.47,2.61-76.39-16.07-47.29-19.66-40.63-23.39-57.6-26.67-42.76-8.27-61.29,19.95-97.06,13.21-16.48-3.11-39.54-14.19-63.14-52.81l16.2-16.2Z"/>
        </g>
        <g>
          <path class="cls-2" d="M826.82,465.24c11.18,9.57,22.37,19.14,33.55,28.71,0,0-49.03,87.17-187.22,81.09l28.69,200.97-133.84-76.46,10.41-18.22,94.2,53.81-28.04-196.61c19.02,1.39,46.63,1.03,78.02-8.02,54.56-15.73,88.96-48.58,104.22-65.26Z"/>
          <circle class="cls-10" cx="496.31" cy="409.25" r="136.35"/>
          <circle class="cls-4" cx="766.8" cy="370.76" r="56.08"/>
          <circle class="cls-4" cx="672.41" cy="287.29" r="31.8"/>
          <polygon class="cls-9" points="441.6 821.36 421.41 771.87 376.28 800.52 402.39 753.88 351.86 736.45 404.6 727.78 386.71 677.42 426.38 713.24 454.61 667.86 451.32 721.2 504.41 714.98 460.65 745.67 498.62 783.29 447.34 768.22 441.6 821.36"/>
          <polygon class="cls-1" points="747.87 626.8 972.88 539.87 815.97 858.2 747.87 626.8"/>
          <path class="cls-1" d="M269.7,548.72c7.95,15.3,21.75,35.53,44.59,43.48,35.42,12.32,53.64-18.43,98.67-16.35,57.77,2.67,78.6,55.63,119.26,46.26,23.17-5.34,37.6-27.43,45.4-42.43v51.51c-6.39,5.55-16.39,12.64-29.92,16.07-14.7,3.73-31.47,2.61-76.39-16.07-47.29-19.66-40.63-23.39-57.6-26.67-42.76-8.27-61.29,19.95-97.06,13.21-16.48-3.11-39.54-14.19-63.14-52.81l16.2-16.2Z"/>
        </g>
        <g>
          <path class="cls-2" d="M227.41,167.39c11.18,9.57,22.37,19.14,33.55,28.71,0,0-49.03,87.17-187.22,81.09l28.69,200.97L-31.4,401.7l10.41-18.22,94.2,53.81-28.04-196.61c19.02,1.39,46.63,1.03,78.02-8.02,54.56-15.73,88.96-48.58,104.22-65.26Z"/>
          <circle class="cls-10" cx="-103.1" cy="111.41" r="136.35"/>
          <circle class="cls-4" cx="167.39" cy="72.92" r="56.08"/>
          <circle class="cls-4" cx="73" cy="-10.56" r="31.8"/>
          <polygon class="cls-1" points="148.47 328.96 373.47 242.03 216.56 560.36 148.47 328.96"/>
        </g>
        <g>
          <path class="cls-2" d="M826.82-130.45c11.18,9.57,22.37,19.14,33.55,28.71,0,0-49.03,87.17-187.22,81.09l28.69,200.97-133.84-76.46,10.41-18.22,94.2,53.81-28.04-196.61c19.02,1.39,46.63,1.03,78.02-8.02,54.56-15.73,88.96-48.58,104.22-65.26Z"/>
          <polygon class="cls-9" points="441.6 225.67 421.41 176.19 376.28 204.83 402.39 158.19 351.86 140.77 404.6 132.09 386.71 81.73 426.38 117.55 454.61 72.17 451.32 125.52 504.41 119.29 460.65 149.99 498.62 187.6 447.34 172.54 441.6 225.67"/>
          <polygon class="cls-1" points="747.87 31.11 972.88 -55.81 815.97 262.51 747.87 31.11"/>
          <path class="cls-1" d="M269.7-46.97c7.95,15.3,21.75,35.53,44.59,43.48,35.42,12.32,53.64-18.43,98.67-16.35,57.77,2.67,78.6,55.63,119.26,46.26,23.17-5.34,37.6-27.43,45.4-42.43v51.51c-6.39,5.55-16.39,12.64-29.92,16.07-14.7,3.73-31.47,2.61-76.39-16.07-47.29-19.66-40.63-23.39-57.6-26.67-42.76-8.27-61.29,19.95-97.06,13.21-16.48-3.11-39.54-14.19-63.14-52.81l16.2-16.2Z"/>
        </g>
      </g>
    </pattern>
    <pattern id="Novo_padrão_3" data-name="Novo padrão 3" x="0" y="0" width="1723.67" height="1026.96" patternTransform="translate(2068.54 -5592.98) scale(.27)" patternUnits="userSpaceOnUse" viewBox="0 0 1723.67 1026.96">
      <g>
        <rect class="cls-5" x="0" y="0" width="1723.67" height="1026.96"/>
        <g>
          <path class="cls-7" d="M2026.53,1061.51c-.27,1.4-.56,2.81-.86,4.21-34,30.57-76.77,55.24-118.52,73.59.31-.75.61-1.5.9-2.26,9.39-24.6,7.83-56.13.68-81.02-6.38-22.21-23.59-44.99-45.24-53.93,5.48,42.34-1.53,103.34-48.02,119.77-8.5,3.01-15.23,4.85-24.4,3.16-30.35-5.56-6.9-35.19-4.08-54.1,7.43-49.9-54.96-65.58-59.33-108.29-2.41-23.5,10.23-50.68,18.52-72.25.84-2.85-2.29-1.88-4.03-1.53-33.2,6.7-70.36,42.43-80.16,74.54-10.61,34.81.26,57.76,1.87,90.48,1.6,32.78-22.38,41.73-50.56,31.85-42.52-14.93-30.33-75.78-19.29-108.58-39.44,11.18-65.79,57.76-73.02,96.01-9.2,48.67,9.77,92.87,39.84,130.09l.75.93c-20.11-.4-39.39-6.41-58.64-11.21-.36-.49-.72-.97-1.07-1.46-56.11-76.57-71.82-177.69-37.31-267.1,38.87-100.74,120.27-172.87,228.84-187.84,105.51-14.55,206.26,22.69,273.64,104.59l-48.93,19.67-2.21.89c24.31,16.5,49.93,31.01,73.46,48.81,13.26,10.04,18.95,15.96,30.07,27.94.65,2.42,1.28,4.84,1.88,7.26,9.43,38.04,12.77,76.98,5.22,115.78Z"/>
          <path class="cls-2" d="M1908.05,1137.05c-1.22.58-2.44,1.15-3.67,1.73-106.25,49.98-225.5,78.45-343.55,64.47-30.07-37.22-49.04-81.42-39.84-130.09,7.23-38.25,33.58-84.83,73.02-96.01-11.04,32.8-23.23,93.65,19.29,108.58,28.18,9.88,52.16.93,50.56-31.85-1.61-32.72-12.48-55.67-1.87-90.48,9.8-32.11,46.96-67.84,80.16-74.54,1.74-.35,4.87-1.32,4.03,1.53-8.29,21.57-20.93,48.75-18.52,72.25,4.37,42.71,66.76,58.39,59.33,108.29-2.82,18.91-26.27,48.54,4.08,54.1,9.17,1.69,15.9-.15,24.4-3.16,46.49-16.43,53.5-77.43,48.02-119.77,21.65,8.94,38.86,31.72,45.24,53.93,7.15,24.89,8.71,56.42-.68,81.02Z"/>
          <path class="cls-8" d="M1977.02,1191.72c-101.31,64.01-231.26,102.49-350.57,107.29-118.83,4.78-297.23-30.46-317.96-172.96-15.21-104.56,64.29-175.44,147.68-219.99-.56,1.18-1.11,2.36-1.64,3.55-9.22,20.09-16.24,40.76-20.87,62.49-.37,1.74-.63,3.74-.86,5.85-.68,6.26-1.04,13.51-2.93,17.81-.14.33-.34.69-.58,1.09-3.64,6.11-17.42,19.31-22.18,26.06-10.9,15.43-18.28,31.82-21.48,48.18-2.25,11.51-2.43,23-.29,34.11,3.76,19.6,14.71,38.02,34.14,53.33,12.98,10.22,27.25,17.19,42.18,22.57,6.49,2.34,13.11,4.38,19.8,6.25,7.1,2,14.28,3.82,21.48,5.62,19.25,4.8,38.53,10.81,58.64,11.21l-.75-.93c118.05,13.98,237.3-14.49,343.55-64.47,1.23-.58,2.45-1.15,3.67-1.73-.29.76-.59,1.51-.9,2.26,41.75-18.35,84.52-43.02,118.52-73.59,43.42-39.05,81.68-109.72,25.56-155.94-2.65-.47-1.81.98-1.78,2.58h0c0,.19,0,.38-.02.57-.96,6.95-4.5,34.95-9.32,38.09-1.32.86-2.66,1.2-4,1.14-6.4-.25-12.76-9.49-16.68-13.69-11.12-11.98-16.81-17.9-30.07-27.94-23.53-17.8-49.15-32.31-73.46-48.81l2.21-.89,48.93-19.67c4.81-1.68,9.6-3.51,14.38-5.45.02,0,.05-.02.08-.03,11.41-4.63,22.75-9.84,34.09-14.98,14.42-6.54,28.85-12.95,43.46-17.9,8.04-2.73,13.58-5.81,12.7,6.42l-9.7,43.67c34.74,20.04,65.83,45.79,75.34,86.76,23.57,101.52-83.06,203.22-160.37,252.07Z"/>
        </g>
        <g>
          <path class="cls-7" d="M302.87,1061.51c-.27,1.4-.56,2.81-.86,4.21-34,30.57-76.77,55.24-118.52,73.59.31-.75.61-1.5.9-2.26,9.39-24.6,7.83-56.13.68-81.02-6.38-22.21-23.59-44.99-45.24-53.93,5.48,42.34-1.53,103.34-48.02,119.77-8.5,3.01-15.23,4.85-24.4,3.16-30.35-5.56-6.9-35.19-4.08-54.1,7.43-49.9-54.96-65.58-59.33-108.29-2.41-23.5,10.23-50.68,18.52-72.25.84-2.85-2.29-1.88-4.03-1.53-33.2,6.7-70.36,42.43-80.16,74.54-10.61,34.81.26,57.76,1.87,90.48,1.6,32.78-22.38,41.73-50.56,31.85-42.52-14.93-30.33-75.78-19.29-108.58-39.44,11.18-65.79,57.76-73.02,96.01-9.2,48.67,9.77,92.87,39.84,130.09l.75.93c-20.11-.4-39.39-6.41-58.64-11.21-.36-.49-.72-.97-1.07-1.46-56.11-76.57-71.82-177.69-37.31-267.1,38.87-100.74,120.27-172.87,228.84-187.84,105.51-14.55,206.26,22.69,273.64,104.59l-48.93,19.67-2.21.89c24.31,16.5,49.93,31.01,73.46,48.81,13.26,10.04,18.95,15.96,30.07,27.94.65,2.42,1.28,4.84,1.88,7.26,9.43,38.04,12.77,76.98,5.22,115.78Z"/>
          <path class="cls-2" d="M184.39,1137.05c-1.22.58-2.44,1.15-3.67,1.73-106.25,49.98-225.5,78.45-343.55,64.47-30.07-37.22-49.04-81.42-39.84-130.09,7.23-38.25,33.58-84.83,73.02-96.01-11.04,32.8-23.23,93.65,19.29,108.58,28.18,9.88,52.16.93,50.56-31.85-1.61-32.72-12.48-55.67-1.87-90.48,9.8-32.11,46.96-67.84,80.16-74.54,1.74-.35,4.87-1.32,4.03,1.53-8.29,21.57-20.93,48.75-18.52,72.25,4.37,42.71,66.76,58.39,59.33,108.29-2.82,18.91-26.27,48.54,4.08,54.1,9.17,1.69,15.9-.15,24.4-3.16,46.49-16.43,53.5-77.43,48.02-119.77,21.65,8.94,38.86,31.72,45.24,53.93,7.15,24.89,8.71,56.42-.68,81.02Z"/>
          <path class="cls-8" d="M253.36,1191.72c-101.31,64.01-231.26,102.49-350.57,107.29-118.83,4.78-297.23-30.46-317.96-172.96-15.21-104.56,64.29-175.44,147.68-219.99-.56,1.18-1.11,2.36-1.64,3.55-9.22,20.09-16.24,40.76-20.87,62.49-.37,1.74-.63,3.74-.86,5.85-.68,6.26-1.04,13.51-2.93,17.81-.14.33-.34.69-.58,1.09-3.64,6.11-17.42,19.31-22.18,26.06-10.9,15.43-18.28,31.82-21.48,48.18-2.25,11.51-2.43,23-.29,34.11,3.76,19.6,14.71,38.02,34.14,53.33,12.98,10.22,27.25,17.19,42.18,22.57,6.49,2.34,13.11,4.38,19.8,6.25,7.1,2,14.28,3.82,21.48,5.62,19.25,4.8,38.53,10.81,58.64,11.21l-.75-.93c118.05,13.98,237.3-14.49,343.55-64.47,1.23-.58,2.45-1.15,3.67-1.73-.29.76-.59,1.51-.9,2.26,41.75-18.35,84.52-43.02,118.52-73.59,43.42-39.05,81.68-109.72,25.56-155.94-2.65-.47-1.81.98-1.78,2.58h0c0,.19,0,.38-.02.57-.96,6.95-4.5,34.95-9.32,38.09-1.32.86-2.66,1.2-4,1.14-6.4-.25-12.76-9.49-16.68-13.69-11.12-11.98-16.81-17.9-30.07-27.94-23.53-17.8-49.15-32.31-73.46-48.81l2.21-.89,48.93-19.67c4.81-1.68,9.6-3.51,14.38-5.45.02,0,.05-.02.08-.03,11.41-4.63,22.75-9.84,34.09-14.98,14.42-6.54,28.85-12.95,43.46-17.9,8.04-2.73,13.58-5.81,12.7,6.42l-9.7,43.67c34.74,20.04,65.83,45.79,75.34,86.76,23.57,101.52-83.06,203.22-160.37,252.07Z"/>
        </g>
        <g>
          <path class="cls-7" d="M2026.53,34.55c-.27,1.4-.56,2.81-.86,4.21-34,30.57-76.77,55.24-118.52,73.59.31-.75.61-1.5.9-2.26,9.39-24.6,7.83-56.13.68-81.02-6.38-22.21-23.59-44.99-45.24-53.93,5.48,42.34-1.53,103.34-48.02,119.77-8.5,3.01-15.23,4.85-24.4,3.16-30.35-5.56-6.9-35.19-4.08-54.1,7.43-49.9-54.96-65.58-59.33-108.29-2.41-23.5,10.23-50.68,18.52-72.25.84-2.85-2.29-1.88-4.03-1.53-33.2,6.7-70.36,42.43-80.16,74.54-10.61,34.81.26,57.76,1.87,90.48,1.6,32.78-22.38,41.73-50.56,31.85-42.52-14.93-30.33-75.78-19.29-108.58-39.44,11.18-65.79,57.76-73.02,96.01-9.2,48.67,9.77,92.87,39.84,130.09l.75.93c-20.11-.4-39.39-6.41-58.64-11.21-.36-.49-.72-.97-1.07-1.46-56.11-76.57-71.82-177.69-37.31-267.1,38.87-100.74,120.27-172.87,228.84-187.84,105.51-14.55,206.26,22.69,273.64,104.59l-48.93,19.67-2.21.89c24.31,16.5,49.93,31.01,73.46,48.81,13.26,10.04,18.95,15.96,30.07,27.94.65,2.42,1.28,4.84,1.88,7.26,9.43,38.04,12.77,76.98,5.22,115.78Z"/>
          <path class="cls-7" d="M1977.02,164.76c-4.8,11.73-13.34,21.82-21.81,31.21-83.37,92.3-212.48,122.32-328.75,76.08,119.31-4.8,249.26-43.28,350.57-107.29Z"/>
          <path class="cls-2" d="M1908.05,110.09c-1.22.58-2.44,1.15-3.67,1.73-106.25,49.98-225.5,78.45-343.55,64.47-30.07-37.22-49.04-81.42-39.84-130.09,7.23-38.25,33.58-84.83,73.02-96.01-11.04,32.8-23.23,93.65,19.29,108.58,28.18,9.88,52.16.93,50.56-31.85-1.61-32.72-12.48-55.67-1.87-90.48,9.8-32.11,46.96-67.84,80.16-74.54,1.74-.35,4.87-1.32,4.03,1.53-8.29,21.57-20.93,48.75-18.52,72.25,4.37,42.71,66.76,58.39,59.33,108.29-2.82,18.91-26.27,48.54,4.08,54.1,9.17,1.69,15.9-.15,24.4-3.16,46.49-16.43,53.5-77.43,48.02-119.77,21.65,8.94,38.86,31.72,45.24,53.93,7.15,24.89,8.71,56.42-.68,81.02Z"/>
          <path class="cls-8" d="M1977.02,164.76c-101.31,64.01-231.26,102.49-350.57,107.29-118.83,4.78-297.23-30.46-317.96-172.96-15.21-104.56,64.29-175.44,147.68-219.99-.56,1.18-1.11,2.36-1.64,3.55-9.22,20.09-16.24,40.76-20.87,62.49-.37,1.74-.63,3.74-.86,5.85-.68,6.26-1.04,13.51-2.93,17.81-.14.33-.34.69-.58,1.09-3.64,6.11-17.42,19.31-22.18,26.06-10.9,15.43-18.28,31.82-21.48,48.18-2.25,11.51-2.43,23-.29,34.11,3.76,19.6,14.71,38.02,34.14,53.33,12.98,10.22,27.25,17.19,42.18,22.57,6.49,2.34,13.11,4.38,19.8,6.25,7.1,2,14.28,3.82,21.48,5.62,19.25,4.8,38.53,10.81,58.64,11.21l-.75-.93c118.05,13.98,237.3-14.49,343.55-64.47,1.23-.58,2.45-1.15,3.67-1.73-.29.76-.59,1.51-.9,2.26,41.75-18.35,84.52-43.02,118.52-73.59,43.42-39.05,81.68-109.72,25.56-155.94-2.65-.47-1.81.98-1.78,2.58h0c0,.19,0,.38-.02.57-.96,6.95-4.5,34.95-9.32,38.09-1.32.86-2.66,1.2-4,1.14-6.4-.25-12.76-9.49-16.68-13.69-11.12-11.98-16.81-17.9-30.07-27.94-23.53-17.8-49.15-32.31-73.46-48.81l2.21-.89,48.93-19.67c4.81-1.68,9.6-3.51,14.38-5.45.02,0,.05-.02.08-.03,11.41-4.63,22.75-9.84,34.09-14.98,14.42-6.54,28.85-12.95,43.46-17.9,8.04-2.73,13.58-5.81,12.7,6.42l-9.7,43.67c34.74,20.04,65.83,45.79,75.34,86.76,23.57,101.52-83.06,203.22-160.37,252.07Z"/>
        </g>
        <g>
          <path class="cls-7" d="M1164.7,548.03c-.27,1.4-.56,2.81-.86,4.21-34,30.57-76.77,55.24-118.52,73.59.31-.75.61-1.5.9-2.26,9.39-24.6,7.83-56.13.68-81.02-6.38-22.21-23.59-44.99-45.24-53.93,5.48,42.34-1.53,103.34-48.02,119.77-8.5,3.01-15.23,4.85-24.4,3.16-30.35-5.56-6.9-35.19-4.08-54.1,7.43-49.9-54.96-65.58-59.33-108.29-2.41-23.5,10.23-50.68,18.52-72.25.84-2.85-2.29-1.88-4.03-1.53-33.2,6.7-70.36,42.43-80.16,74.54-10.61,34.81.26,57.76,1.87,90.48,1.6,32.78-22.38,41.73-50.56,31.85-42.52-14.93-30.33-75.78-19.29-108.58-39.44,11.18-65.79,57.76-73.02,96.01-9.2,48.67,9.77,92.87,39.84,130.09l.75.93c-20.11-.4-39.39-6.41-58.64-11.21-.36-.49-.72-.97-1.07-1.46-56.11-76.57-71.82-177.69-37.31-267.1,38.87-100.74,120.27-172.87,228.84-187.84,105.51-14.55,206.26,22.69,273.64,104.59l-48.93,19.67-2.21.89c24.31,16.5,49.93,31.01,73.46,48.81,13.26,10.04,18.95,15.96,30.07,27.94.65,2.42,1.28,4.84,1.88,7.26,9.43,38.04,12.77,76.98,5.22,115.78Z"/>
          <path class="cls-7" d="M1115.19,678.24c-4.8,11.73-13.34,21.82-21.81,31.21-83.37,92.3-212.48,122.32-328.75,76.08,119.31-4.8,249.26-43.28,350.57-107.29Z"/>
          <path class="cls-2" d="M1046.22,623.57c-1.22.58-2.44,1.15-3.67,1.73-106.25,49.98-225.5,78.45-343.55,64.47-30.07-37.22-49.04-81.42-39.84-130.09,7.23-38.25,33.58-84.83,73.02-96.01-11.04,32.8-23.23,93.65,19.29,108.58,28.18,9.88,52.16.93,50.56-31.85-1.61-32.72-12.48-55.67-1.87-90.48,9.8-32.11,46.96-67.84,80.16-74.54,1.74-.35,4.87-1.32,4.03,1.53-8.29,21.57-20.93,48.75-18.52,72.25,4.37,42.71,66.76,58.39,59.33,108.29-2.82,18.91-26.27,48.54,4.08,54.1,9.17,1.69,15.9-.15,24.4-3.16,46.49-16.43,53.5-77.43,48.02-119.77,21.65,8.94,38.86,31.72,45.24,53.93,7.15,24.89,8.71,56.42-.68,81.02Z"/>
          <path class="cls-8" d="M1115.19,678.24c-101.31,64.01-231.26,102.49-350.57,107.29-118.83,4.78-297.23-30.46-317.96-172.96-15.21-104.56,64.29-175.44,147.68-219.99-.56,1.18-1.11,2.36-1.64,3.55-9.22,20.09-16.24,40.76-20.87,62.49-.37,1.74-.63,3.74-.86,5.85-.68,6.26-1.04,13.51-2.93,17.81-.14.33-.34.69-.58,1.09-3.64,6.11-17.42,19.31-22.18,26.06-10.9,15.43-18.28,31.82-21.48,48.18-2.25,11.51-2.43,23-.29,34.11,3.76,19.6,14.71,38.02,34.14,53.33,12.98,10.22,27.25,17.19,42.18,22.57,6.49,2.34,13.11,4.38,19.8,6.25,7.1,2,14.28,3.82,21.48,5.62,19.25,4.8,38.53,10.81,58.64,11.21l-.75-.93c118.05,13.98,237.3-14.49,343.55-64.47,1.23-.58,2.45-1.15,3.67-1.73-.29.76-.59,1.51-.9,2.26,41.75-18.35,84.52-43.02,118.52-73.59,43.42-39.05,81.68-109.72,25.56-155.94-2.65-.47-1.81.98-1.78,2.58h0c0,.19,0,.38-.02.57-.96,6.95-4.5,34.95-9.32,38.09-1.32.86-2.66,1.2-4,1.14-6.4-.25-12.76-9.49-16.68-13.69-11.12-11.98-16.81-17.9-30.07-27.94-23.53-17.8-49.15-32.31-73.46-48.81l2.21-.89,48.93-19.67c4.81-1.68,9.6-3.51,14.38-5.45.02,0,.05-.02.08-.03,11.41-4.63,22.75-9.84,34.09-14.98,14.42-6.54,28.85-12.95,43.46-17.9,8.04-2.73,13.58-5.81,12.7,6.42l-9.7,43.67c34.74,20.04,65.83,45.79,75.34,86.76,23.57,101.52-83.06,203.22-160.37,252.07Z"/>
        </g>
        <g>
          <path class="cls-7" d="M302.87,34.55c-.27,1.4-.56,2.81-.86,4.21-34,30.57-76.77,55.24-118.52,73.59.31-.75.61-1.5.9-2.26,9.39-24.6,7.83-56.13.68-81.02-6.38-22.21-23.59-44.99-45.24-53.93,5.48,42.34-1.53,103.34-48.02,119.77-8.5,3.01-15.23,4.85-24.4,3.16-30.35-5.56-6.9-35.19-4.08-54.1C70.76-5.93,8.37-21.61,4-64.32c-2.41-23.5,10.23-50.68,18.52-72.25.84-2.85-2.29-1.88-4.03-1.53-33.2,6.7-70.36,42.43-80.16,74.54-10.61,34.81.26,57.76,1.87,90.48,1.6,32.78-22.38,41.73-50.56,31.85-42.52-14.93-30.33-75.78-19.29-108.58-39.44,11.18-65.79,57.76-73.02,96.01-9.2,48.67,9.77,92.87,39.84,130.09l.75.93c-20.11-.4-39.39-6.41-58.64-11.21-.36-.49-.72-.97-1.07-1.46-56.11-76.57-71.82-177.69-37.31-267.1,38.87-100.74,120.27-172.87,228.84-187.84,105.51-14.55,206.26,22.69,273.64,104.59l-48.93,19.67-2.21.89c24.31,16.5,49.93,31.01,73.46,48.81,13.26,10.04,18.95,15.96,30.07,27.94.65,2.42,1.28,4.84,1.88,7.26,9.43,38.04,12.77,76.98,5.22,115.78Z"/>
          <path class="cls-7" d="M253.35,164.76c-4.8,11.73-13.34,21.82-21.81,31.21-83.37,92.3-212.48,122.32-328.75,76.08,119.31-4.8,249.26-43.28,350.57-107.29Z"/>
          <path class="cls-2" d="M184.39,110.09c-1.22.58-2.44,1.15-3.67,1.73-106.25,49.98-225.5,78.45-343.55,64.47-30.07-37.22-49.04-81.42-39.84-130.09,7.23-38.25,33.58-84.83,73.02-96.01-11.04,32.8-23.23,93.65,19.29,108.58,28.18,9.88,52.16.93,50.56-31.85-1.61-32.72-12.48-55.67-1.87-90.48,9.8-32.11,46.96-67.84,80.16-74.54,1.74-.35,4.87-1.32,4.03,1.53C14.23-115,1.59-87.82,4-64.32,8.37-21.61,70.76-5.93,63.33,43.97c-2.82,18.91-26.27,48.54,4.08,54.1,9.17,1.69,15.9-.15,24.4-3.16,46.49-16.43,53.5-77.43,48.02-119.77,21.65,8.94,38.86,31.72,45.24,53.93,7.15,24.89,8.71,56.42-.68,81.02Z"/>
          <path class="cls-8" d="M253.36,164.76c-101.31,64.01-231.26,102.49-350.57,107.29-118.83,4.78-297.23-30.46-317.96-172.96-15.21-104.56,64.29-175.44,147.68-219.99-.56,1.18-1.11,2.36-1.64,3.55-9.22,20.09-16.24,40.76-20.87,62.49-.37,1.74-.63,3.74-.86,5.85-.68,6.26-1.04,13.51-2.93,17.81-.14.33-.34.69-.58,1.09-3.64,6.11-17.42,19.31-22.18,26.06-10.9,15.43-18.28,31.82-21.48,48.18-2.25,11.51-2.43,23-.29,34.11,3.76,19.6,14.71,38.02,34.14,53.33,12.98,10.22,27.25,17.19,42.18,22.57,6.49,2.34,13.11,4.38,19.8,6.25,7.1,2,14.28,3.82,21.48,5.62,19.25,4.8,38.53,10.81,58.64,11.21l-.75-.93c118.05,13.98,237.3-14.49,343.55-64.47,1.23-.58,2.45-1.15,3.67-1.73-.29.76-.59,1.51-.9,2.26,41.75-18.35,84.52-43.02,118.52-73.59,43.42-39.05,81.68-109.72,25.56-155.94-2.65-.47-1.81.98-1.78,2.58h0c0,.19,0,.38-.02.57-.96,6.95-4.5,34.95-9.32,38.09-1.32.86-2.66,1.2-4,1.14-6.4-.25-12.76-9.49-16.68-13.69-11.12-11.98-16.81-17.9-30.07-27.94-23.53-17.8-49.15-32.31-73.46-48.81l2.21-.89,48.93-19.67c4.81-1.68,9.6-3.51,14.38-5.45.02,0,.05-.02.08-.03,11.41-4.63,22.75-9.84,34.09-14.98,14.42-6.54,28.85-12.95,43.46-17.9,8.04-2.73,13.58-5.81,12.7,6.42l-9.7,43.67c34.74,20.04,65.83,45.79,75.34,86.76,23.57,101.52-83.06,203.22-160.37,252.07Z"/>
        </g>
      </g>
    </pattern>
  </defs>
  <g id="Camada_1-2" data-name="Camada 1">
    <rect class="cls-3" x="0" y="1350.02" width="3810.24" height="1178.67"/>
    <rect class="cls-6" x="0" y="2628.74" width="3810.24" height="1178.67"/>
    <rect class="cls-11" x="0" width="3810.24" height="1178.67"/>
  </g>
</svg>