<?xml version="1.0" encoding="UTF-8"?>
<svg id="Camada_2" data-name="Camada 2" xmlns="http://www.w3.org/2000/svg" xmlns:xlink="http://www.w3.org/1999/xlink" viewBox="0 0 831.6 831.6">
  <defs>
    <style>
      .cls-1 {
        fill: #8372b2;
      }

      .cls-2 {
        fill: #33276a;
      }

      .cls-3 {
        fill: url(#Novo_padrão_2);
      }

      .cls-4 {
        fill: none;
      }

      .cls-5 {
        fill: #a68a55;
      }
    </style>
    <pattern id="Novo_padrão_2" data-name="Novo padrão 2" x="0" y="0" width="1575.84" height="1328.77" patternTransform="translate(-4737.36 -5443.49) scale(.24)" patternUnits="userSpaceOnUse" viewBox="0 0 1575.84 1328.77">
      <g>
        <rect class="cls-4" width="1575.84" height="1328.77"/>
        <g>
          <g>
            <path class="cls-1" d="M942.76,1248.02h73.5c-4.51,62.13-58.99,80.75-125.24,80.75-64.31-.12-118.14-17.49-124.91-76.32h49.62l-40.11-51.6c12.05-5.62,21.76-14.1,29.01-25.18,5.52-8.38,8.99-17.53,10.38-27.38,21.17-8.91,47.57-12.37,76.02-12.49,66.24.14,120.72,18.76,125.24,80.75h-73.5c-6.71-18.07-27.1-22.3-51.74-22.3-29.27.4-54.2,5.6-53.77,35.84v4.53c-.42,29.96,24.5,35.44,53.77,35.84,24.64,0,45.17-4.37,51.74-22.44Z"/>
            <path class="cls-2" d="M559.59,1065.72v179.98h70.17v-43.92h62.67l33.88,43.92h74.72l-39.24-50.48c11.78-5.49,21.29-13.79,28.39-24.64,7.23-10.98,10.85-23.3,10.85-36.82.54-37.23-30.93-68.43-68.03-68.03h-173.41ZM715.33,1118.34c8.57,0,15.4,6.83,15.4,15.4,0,4.15-1.47,7.77-4.55,10.85-2.95,2.95-6.56,4.42-10.85,4.42h-85.57v-30.67h85.57Z"/>
          </g>
          <g>
            <path class="cls-2" d="M1463.34,1418.02h73.5c-4.51,62.13-58.99,80.75-125.24,80.75-64.31-.12-118.14-17.49-124.91-76.32h49.62l-40.11-51.6c12.05-5.62,21.76-14.1,29.01-25.18,5.52-8.38,8.99-17.53,10.38-27.38,21.17-8.91,47.57-12.37,76.02-12.49,66.24.14,120.72,18.76,125.24,80.75h-73.5c-6.71-18.07-27.1-22.3-51.74-22.3-29.27.4-54.2,5.6-53.77,35.84v4.53c-.42,29.96,24.5,35.44,53.77,35.84,24.64,0,45.17-4.37,51.74-22.44Z"/>
            <path class="cls-2" d="M1080.18,1235.72v179.98h70.17v-43.92h62.67l33.88,43.92h74.72l-39.24-50.48c11.78-5.49,21.29-13.79,28.39-24.64,7.23-10.98,10.85-23.3,10.85-36.82.54-37.23-30.93-68.43-68.03-68.03h-173.41ZM1235.92,1288.34c8.57,0,15.4,6.83,15.4,15.4,0,4.15-1.47,7.77-4.55,10.85-2.95,2.95-6.56,4.42-10.85,4.42h-85.57v-30.67h85.57Z"/>
          </g>
          <g>
            <path class="cls-5" d="M431.17,1332.32h73.5c-4.51,62.13-58.99,80.75-125.24,80.75-64.31-.12-118.14-17.49-124.91-76.32h49.62l-40.11-51.6c12.05-5.62,21.76-14.1,29.01-25.18,5.52-8.38,8.99-17.53,10.38-27.38,21.17-8.91,47.57-12.37,76.02-12.49,66.24.14,120.72,18.76,125.24,80.75h-73.5c-6.71-18.07-27.1-22.3-51.74-22.3-29.27.4-54.2,5.6-53.77,35.84v4.53c-.42,29.96,24.5,35.44,53.77,35.84,24.64,0,45.17-4.37,51.74-22.44Z"/>
            <path class="cls-5" d="M48,1150.02v179.98h70.17v-43.92h62.67l33.88,43.92h74.72l-39.24-50.48c11.78-5.49,21.29-13.79,28.39-24.64,7.23-10.98,10.85-23.3,10.85-36.82.54-37.23-30.93-68.43-68.03-68.03H48ZM203.74,1202.64c8.57,0,15.4,6.83,15.4,15.4,0,4.15-1.47,7.77-4.55,10.85-2.95,2.95-6.56,4.42-10.85,4.42h-85.57v-30.67h85.57Z"/>
          </g>
        </g>
        <g>
          <g>
            <path class="cls-1" d="M942.76,982.26h73.5c-4.51,62.13-58.99,80.75-125.24,80.75-64.31-.12-118.14-17.49-124.91-76.32h49.62l-40.11-51.6c12.05-5.62,21.76-14.1,29.01-25.18,5.52-8.38,8.99-17.53,10.38-27.38,21.17-8.91,47.57-12.37,76.02-12.49,66.24.14,120.72,18.76,125.24,80.75h-73.5c-6.71-18.07-27.1-22.3-51.74-22.3-29.27.4-54.2,5.6-53.77,35.84v4.53c-.42,29.96,24.5,35.44,53.77,35.84,24.64,0,45.17-4.37,51.74-22.44Z"/>
            <path class="cls-2" d="M559.59,799.96v179.98h70.17v-43.92h62.67l33.88,43.92h74.72l-39.24-50.48c11.78-5.49,21.29-13.79,28.39-24.64,7.23-10.98,10.85-23.3,10.85-36.82.54-37.23-30.93-68.43-68.03-68.03h-173.41ZM715.33,852.59c8.57,0,15.4,6.83,15.4,15.4,0,4.15-1.47,7.77-4.55,10.85-2.95,2.95-6.56,4.42-10.85,4.42h-85.57v-30.67h85.57Z"/>
          </g>
          <g>
            <path class="cls-2" d="M1463.34,1152.26h73.5c-4.51,62.13-58.99,80.75-125.24,80.75-64.31-.12-118.14-17.49-124.91-76.32h49.62l-40.11-51.6c12.05-5.62,21.76-14.1,29.01-25.18,5.52-8.38,8.99-17.53,10.38-27.38,21.17-8.91,47.57-12.37,76.02-12.49,66.24.14,120.72,18.76,125.24,80.75h-73.5c-6.71-18.07-27.1-22.3-51.74-22.3-29.27.4-54.2,5.6-53.77,35.84v4.53c-.42,29.96,24.5,35.44,53.77,35.84,24.64,0,45.17-4.37,51.74-22.44Z"/>
            <path class="cls-2" d="M1080.18,969.96v179.98h70.17v-43.92h62.67l33.88,43.92h74.72l-39.24-50.48c11.78-5.49,21.29-13.79,28.39-24.64,7.23-10.98,10.85-23.3,10.85-36.82.54-37.23-30.93-68.43-68.03-68.03h-173.41ZM1235.92,1022.59c8.57,0,15.4,6.83,15.4,15.4,0,4.15-1.47,7.77-4.55,10.85-2.95,2.95-6.56,4.42-10.85,4.42h-85.57v-30.67h85.57Z"/>
          </g>
          <g>
            <path class="cls-5" d="M431.17,1066.56h73.5c-4.51,62.13-58.99,80.75-125.24,80.75-64.31-.12-118.14-17.49-124.91-76.32h49.62l-40.11-51.6c12.05-5.62,21.76-14.1,29.01-25.18,5.52-8.38,8.99-17.53,10.38-27.38,21.17-8.91,47.57-12.37,76.02-12.49,66.24.14,120.72,18.76,125.24,80.75h-73.5c-6.71-18.07-27.1-22.3-51.74-22.3-29.27.4-54.2,5.6-53.77,35.84v4.53c-.42,29.96,24.5,35.44,53.77,35.84,24.64,0,45.17-4.37,51.74-22.44Z"/>
            <path class="cls-5" d="M48,884.26v179.98h70.17v-43.92h62.67l33.88,43.92h74.72l-39.24-50.48c11.78-5.49,21.29-13.79,28.39-24.64,7.23-10.98,10.85-23.3,10.85-36.82.54-37.23-30.93-68.43-68.03-68.03H48ZM203.74,936.89c8.57,0,15.4,6.83,15.4,15.4,0,4.15-1.47,7.77-4.55,10.85-2.95,2.95-6.56,4.42-10.85,4.42h-85.57v-30.67h85.57Z"/>
          </g>
        </g>
        <g>
          <g>
            <path class="cls-1" d="M942.76,716.51h73.5c-4.51,62.13-58.99,80.75-125.24,80.75-64.31-.12-118.14-17.49-124.91-76.32h49.62l-40.11-51.6c12.05-5.62,21.76-14.1,29.01-25.18,5.52-8.38,8.99-17.53,10.38-27.38,21.17-8.91,47.57-12.37,76.02-12.49,66.24.14,120.72,18.76,125.24,80.75h-73.5c-6.71-18.07-27.1-22.3-51.74-22.3-29.27.4-54.2,5.6-53.77,35.84v4.53c-.42,29.96,24.5,35.44,53.77,35.84,24.64,0,45.17-4.37,51.74-22.44Z"/>
            <path class="cls-2" d="M559.59,534.21v179.98h70.17v-43.92h62.67l33.88,43.92h74.72l-39.24-50.48c11.78-5.49,21.29-13.79,28.39-24.64,7.23-10.98,10.85-23.3,10.85-36.82.54-37.23-30.93-68.43-68.03-68.03h-173.41ZM715.33,586.84c8.57,0,15.4,6.83,15.4,15.4,0,4.15-1.47,7.77-4.55,10.85-2.95,2.95-6.56,4.42-10.85,4.42h-85.57v-30.67h85.57Z"/>
          </g>
          <g>
            <path class="cls-2" d="M1463.34,886.51h73.5c-4.51,62.13-58.99,80.75-125.24,80.75-64.31-.12-118.14-17.49-124.91-76.32h49.62l-40.11-51.6c12.05-5.62,21.76-14.1,29.01-25.18,5.52-8.38,8.99-17.53,10.38-27.38,21.17-8.91,47.57-12.37,76.02-12.49,66.24.14,120.72,18.76,125.24,80.75h-73.5c-6.71-18.07-27.1-22.3-51.74-22.3-29.27.4-54.2,5.6-53.77,35.84v4.53c-.42,29.96,24.5,35.44,53.77,35.84,24.64,0,45.17-4.37,51.74-22.44Z"/>
            <path class="cls-2" d="M1080.18,704.21v179.98h70.17v-43.92h62.67l33.88,43.92h74.72l-39.24-50.48c11.78-5.49,21.29-13.79,28.39-24.64,7.23-10.98,10.85-23.3,10.85-36.82.54-37.23-30.93-68.43-68.03-68.03h-173.41ZM1235.92,756.84c8.57,0,15.4,6.83,15.4,15.4,0,4.15-1.47,7.77-4.55,10.85-2.95,2.95-6.56,4.42-10.85,4.42h-85.57v-30.67h85.57Z"/>
          </g>
          <g>
            <path class="cls-5" d="M431.17,800.81h73.5c-4.51,62.13-58.99,80.75-125.24,80.75-64.31-.12-118.14-17.49-124.91-76.32h49.62l-40.11-51.6c12.05-5.62,21.76-14.1,29.01-25.18,5.52-8.38,8.99-17.53,10.38-27.38,21.17-8.91,47.57-12.37,76.02-12.49,66.24.14,120.72,18.76,125.24,80.75h-73.5c-6.71-18.07-27.1-22.3-51.74-22.3-29.27.4-54.2,5.6-53.77,35.84v4.53c-.42,29.96,24.5,35.44,53.77,35.84,24.64,0,45.17-4.37,51.74-22.44Z"/>
            <path class="cls-5" d="M48,618.51v179.98h70.17v-43.92h62.67l33.88,43.92h74.72l-39.24-50.48c11.78-5.49,21.29-13.79,28.39-24.64,7.23-10.98,10.85-23.3,10.85-36.82.54-37.23-30.93-68.43-68.03-68.03H48ZM203.74,671.14c8.57,0,15.4,6.83,15.4,15.4,0,4.15-1.47,7.77-4.55,10.85-2.95,2.95-6.56,4.42-10.85,4.42h-85.57v-30.67h85.57Z"/>
          </g>
        </g>
        <g>
          <g>
            <path class="cls-1" d="M942.76,450.76h73.5c-4.51,62.13-58.99,80.75-125.24,80.75-64.31-.12-118.14-17.49-124.91-76.32h49.62l-40.11-51.6c12.05-5.62,21.76-14.1,29.01-25.18,5.52-8.38,8.99-17.53,10.38-27.38,21.17-8.91,47.57-12.37,76.02-12.49,66.24.14,120.72,18.76,125.24,80.75h-73.5c-6.71-18.07-27.1-22.3-51.74-22.3-29.27.4-54.2,5.6-53.77,35.84v4.53c-.42,29.96,24.5,35.44,53.77,35.84,24.64,0,45.17-4.37,51.74-22.44Z"/>
            <path class="cls-2" d="M559.59,268.46v179.98h70.17v-43.92h62.67l33.88,43.92h74.72l-39.24-50.48c11.78-5.49,21.29-13.79,28.39-24.64,7.23-10.98,10.85-23.3,10.85-36.82.54-37.23-30.93-68.43-68.03-68.03h-173.41ZM715.33,321.08c8.57,0,15.4,6.83,15.4,15.4,0,4.15-1.47,7.77-4.55,10.85-2.95,2.95-6.56,4.42-10.85,4.42h-85.57v-30.67h85.57Z"/>
          </g>
          <g>
            <path class="cls-2" d="M1463.34,620.76h73.5c-4.51,62.13-58.99,80.75-125.24,80.75-64.31-.12-118.14-17.49-124.91-76.32h49.62l-40.11-51.6c12.05-5.62,21.76-14.1,29.01-25.18,5.52-8.38,8.99-17.53,10.38-27.38,21.17-8.91,47.57-12.37,76.02-12.49,66.24.14,120.72,18.76,125.24,80.75h-73.5c-6.71-18.07-27.1-22.3-51.74-22.3-29.27.4-54.2,5.6-53.77,35.84v4.53c-.42,29.96,24.5,35.44,53.77,35.84,24.64,0,45.17-4.37,51.74-22.44Z"/>
            <path class="cls-2" d="M1080.18,438.46v179.98h70.17v-43.92h62.67l33.88,43.92h74.72l-39.24-50.48c11.78-5.49,21.29-13.79,28.39-24.64,7.23-10.98,10.85-23.3,10.85-36.82.54-37.23-30.93-68.43-68.03-68.03h-173.41ZM1235.92,491.08c8.57,0,15.4,6.83,15.4,15.4,0,4.15-1.47,7.77-4.55,10.85-2.95,2.95-6.56,4.42-10.85,4.42h-85.57v-30.67h85.57Z"/>
          </g>
          <g>
            <path class="cls-5" d="M431.17,535.06h73.5c-4.51,62.13-58.99,80.75-125.24,80.75-64.31-.12-118.14-17.49-124.91-76.32h49.62l-40.11-51.6c12.05-5.62,21.76-14.1,29.01-25.18,5.52-8.38,8.99-17.53,10.38-27.38,21.17-8.91,47.57-12.37,76.02-12.49,66.24.14,120.72,18.76,125.24,80.75h-73.5c-6.71-18.07-27.1-22.3-51.74-22.3-29.27.4-54.2,5.6-53.77,35.84v4.53c-.42,29.96,24.5,35.44,53.77,35.84,24.64,0,45.17-4.37,51.74-22.44Z"/>
            <path class="cls-5" d="M48,352.76v179.98h70.17v-43.92h62.67l33.88,43.92h74.72l-39.24-50.48c11.78-5.49,21.29-13.79,28.39-24.64,7.23-10.98,10.85-23.3,10.85-36.82.54-37.23-30.93-68.43-68.03-68.03H48ZM203.74,405.38c8.57,0,15.4,6.83,15.4,15.4,0,4.15-1.47,7.77-4.55,10.85-2.95,2.95-6.56,4.42-10.85,4.42h-85.57v-30.67h85.57Z"/>
          </g>
        </g>
        <g>
          <g>
            <path class="cls-1" d="M942.76,185h73.5c-4.51,62.13-58.99,80.75-125.24,80.75-64.31-.12-118.14-17.49-124.91-76.32h49.62l-40.11-51.6c12.05-5.62,21.76-14.1,29.01-25.18,5.52-8.38,8.99-17.53,10.38-27.38,21.17-8.91,47.57-12.37,76.02-12.49,66.24.14,120.72,18.76,125.24,80.75h-73.5c-6.71-18.07-27.1-22.3-51.74-22.3-29.27.4-54.2,5.6-53.77,35.84v4.53c-.42,29.96,24.5,35.44,53.77,35.84,24.64,0,45.17-4.37,51.74-22.44Z"/>
            <path class="cls-2" d="M559.59,2.7v179.98h70.17v-43.92h62.67l33.88,43.92h74.72l-39.24-50.48c11.78-5.49,21.29-13.79,28.39-24.64,7.23-10.98,10.85-23.3,10.85-36.82.54-37.23-30.93-68.43-68.03-68.03h-173.41ZM715.33,55.33c8.57,0,15.4,6.83,15.4,15.4,0,4.15-1.47,7.77-4.55,10.85-2.95,2.95-6.56,4.42-10.85,4.42h-85.57v-30.67h85.57Z"/>
          </g>
          <g>
            <path class="cls-2" d="M1463.34,355h73.5c-4.51,62.13-58.99,80.75-125.24,80.75-64.31-.12-118.14-17.49-124.91-76.32h49.62l-40.11-51.6c12.05-5.62,21.76-14.1,29.01-25.18,5.52-8.38,8.99-17.53,10.38-27.38,21.17-8.91,47.57-12.37,76.02-12.49,66.24.14,120.72,18.76,125.24,80.75h-73.5c-6.71-18.07-27.1-22.3-51.74-22.3-29.27.4-54.2,5.6-53.77,35.84v4.53c-.42,29.96,24.5,35.44,53.77,35.84,24.64,0,45.17-4.37,51.74-22.44Z"/>
            <path class="cls-2" d="M1080.18,172.7v179.98h70.17v-43.92h62.67l33.88,43.92h74.72l-39.24-50.48c11.78-5.49,21.29-13.79,28.39-24.64,7.23-10.98,10.85-23.3,10.85-36.82.54-37.23-30.93-68.43-68.03-68.03h-173.41ZM1235.92,225.33c8.57,0,15.4,6.83,15.4,15.4,0,4.15-1.47,7.77-4.55,10.85-2.95,2.95-6.56,4.42-10.85,4.42h-85.57v-30.67h85.57Z"/>
          </g>
          <g>
            <path class="cls-5" d="M431.17,269.3h73.5c-4.51,62.13-58.99,80.75-125.24,80.75-64.31-.12-118.14-17.49-124.91-76.32h49.62l-40.11-51.6c12.05-5.62,21.76-14.1,29.01-25.18,5.52-8.38,8.99-17.53,10.38-27.38,21.17-8.91,47.57-12.37,76.02-12.49,66.24.14,120.72,18.76,125.24,80.75h-73.5c-6.71-18.07-27.1-22.3-51.74-22.3-29.27.4-54.2,5.6-53.77,35.84v4.53c-.42,29.96,24.5,35.44,53.77,35.84,24.64,0,45.17-4.37,51.74-22.44Z"/>
            <path class="cls-5" d="M48,87v179.98h70.17v-43.92h62.67l33.88,43.92h74.72l-39.24-50.48c11.78-5.49,21.29-13.79,28.39-24.64,7.23-10.98,10.85-23.3,10.85-36.82.54-37.23-30.93-68.43-68.03-68.03H48ZM203.74,139.63c8.57,0,15.4,6.83,15.4,15.4,0,4.15-1.47,7.77-4.55,10.85-2.95,2.95-6.56,4.42-10.85,4.42h-85.57v-30.67h85.57Z"/>
          </g>
        </g>
        <g>
          <g>
            <path class="cls-2" d="M1463.34,89.25h73.5c-4.51,62.13-58.99,80.75-125.24,80.75-64.31-.12-118.14-17.49-124.91-76.32h49.62l-40.11-51.6c12.05-5.62,21.76-14.1,29.01-25.18,5.52-8.38,8.99-17.53,10.38-27.38,21.17-8.91,47.57-12.37,76.02-12.49,66.24.14,120.72,18.76,125.24,80.75h-73.5c-6.71-18.07-27.1-22.3-51.74-22.3-29.27.4-54.2,5.6-53.77,35.84v4.53c-.42,29.96,24.5,35.44,53.77,35.84,24.64,0,45.17-4.37,51.74-22.44Z"/>
            <path class="cls-2" d="M1080.18-93.05V86.93h70.17v-43.92h62.67l33.88,43.92h74.72l-39.24-50.48c11.78-5.49,21.29-13.79,28.39-24.64,7.23-10.98,10.85-23.3,10.85-36.82.54-37.23-30.93-68.43-68.03-68.03h-173.41ZM1235.92-40.42c8.57,0,15.4,6.83,15.4,15.4,0,4.15-1.47,7.77-4.55,10.85-2.95,2.95-6.56,4.42-10.85,4.42h-85.57v-30.67h85.57Z"/>
          </g>
          <g>
            <path class="cls-5" d="M431.17,3.55h73.5c-4.51,62.13-58.99,80.75-125.24,80.75-64.31-.12-118.14-17.49-124.91-76.32h49.62l-40.11-51.6c12.05-5.62,21.76-14.1,29.01-25.18,5.52-8.38,8.99-17.53,10.38-27.38,21.17-8.91,47.57-12.37,76.02-12.49,66.24.14,120.72,18.76,125.24,80.75h-73.5c-6.71-18.07-27.1-22.3-51.74-22.3-29.27.4-54.2,5.6-53.77,35.84v4.53c-.42,29.96,24.5,35.44,53.77,35.84,24.64,0,45.17-4.37,51.74-22.44Z"/>
            <path class="cls-5" d="M48-178.75V1.23h70.17v-43.92h62.67L214.72,1.23h74.72l-39.24-50.48c11.78-5.49,21.29-13.79,28.39-24.64,7.23-10.98,10.85-23.3,10.85-36.82.54-37.23-30.93-68.43-68.03-68.03H48ZM203.74-126.12c8.57,0,15.4,6.83,15.4,15.4,0,4.15-1.47,7.77-4.55,10.85-2.95,2.95-6.56,4.42-10.85,4.42h-85.57v-30.67h85.57Z"/>
          </g>
        </g>
      </g>
    </pattern>
  </defs>
  <g id="Camada_1-2" data-name="Camada 1">
    <rect class="cls-3" width="831.6" height="831.6"/>
  </g>
</svg>