<?xml version="1.0" encoding="UTF-8"?>
<svg id="Camada_2" data-name="Camada 2" xmlns="http://www.w3.org/2000/svg" viewBox="0 0 1316.8 95.78">
  <defs>
    <style>
      .cls-1 {
        fill: #a68a55;
      }
    </style>
  </defs>
  <g id="Camada_1-2" data-name="Camada 1">
    <g>
      <path class="cls-1" d="M87.97,2.31c18.82-.2,34.78,15.62,34.51,34.51,0,6.86-1.83,13.11-5.5,18.68-3.6,5.5-8.42,9.71-14.4,12.5l19.9,25.61h-37.91l-17.19-22.28h-31.79v22.28H0V2.31h87.97ZM35.6,29.01v15.56h43.41c2.17,0,4.01-.75,5.5-2.24s2.31-3.4,2.31-5.5c0-4.35-3.46-7.81-7.81-7.81h-43.41Z"/>
      <path class="cls-1" d="M249.87,44.56v6.66c.14,34.51-27.99,44.5-62.29,44.56-34.37-.07-62.5-10.05-62.36-44.56v-6.66C125.08,9.99,153.2.07,187.58,0c34.37,0,62.29,10.05,62.29,44.56ZM214.27,46.74c.2-14.88-12.16-17.59-26.7-17.8-14.61.2-26.97,2.92-26.77,17.8v2.24c-.2,14.94,12.16,17.66,26.77,17.87,14.54-.2,26.9-2.92,26.7-17.87v-2.24Z"/>
      <path class="cls-1" d="M377.12,55.7c-2.24,30.84-29.28,40.08-62.16,40.08-34.24-.07-62.5-9.99-62.36-44.56v-6.66c-.14-34.51,28.12-44.43,62.36-44.56,32.88.07,59.92,9.31,62.16,40.08h-36.48c-3.33-8.97-13.45-11.07-25.68-11.07-14.54.2-26.9,2.79-26.7,17.8v2.24c-.2,14.88,12.16,17.59,26.7,17.8,12.23,0,22.42-2.17,25.68-11.14h36.48Z"/>
      <path class="cls-1" d="M415.45,62.36v31.18h-35.6V2.24h35.6v31.18h15.56l33.49-31.18h46.74l-47.35,45.65,47.35,45.65h-46.74l-33.49-31.18h-15.56Z"/>
      <path class="cls-1" d="M513.96,2.38h106.86v23.37h-71.26v11.68h71.26v21.13h-71.26v11.68h71.26v23.44h-106.86V2.38Z"/>
      <path class="cls-1" d="M665.87,93.68V31.32h-42.32V2.38h120.24v28.94h-42.32v62.36h-35.6Z"/>
      <path class="cls-1" d="M938.98,55.7c-2.24,30.84-29.28,40.08-62.16,40.08-34.24-.07-62.5-9.99-62.36-44.56v-6.66c-.14-34.51,28.12-44.43,62.36-44.56,32.88.07,59.92,9.31,62.16,40.08h-36.48c-3.33-8.97-13.45-11.07-25.68-11.07-14.54.2-26.9,2.79-26.7,17.8v2.24c-.2,14.88,12.16,17.59,26.7,17.8,12.23,0,22.42-2.17,25.68-11.14h36.48Z"/>
      <path class="cls-1" d="M1066.37,44.56v6.66c.14,34.51-27.99,44.5-62.29,44.56-34.37-.07-62.5-10.05-62.36-44.56v-6.66c-.14-34.58,27.99-44.5,62.36-44.56,34.37,0,62.29,10.05,62.29,44.56ZM1030.77,46.74c.2-14.88-12.16-17.59-26.7-17.8-14.61.2-26.97,2.92-26.77,17.8v2.24c-.2,14.94,12.16,17.66,26.77,17.87,14.54-.2,26.9-2.92,26.7-17.87v-2.24Z"/>
      <path class="cls-1" d="M1157.07,2.31c18.82-.2,34.78,15.62,34.51,34.51,0,6.86-1.83,13.11-5.5,18.68-3.6,5.5-8.42,9.71-14.4,12.5l19.9,25.61h-37.91l-17.19-22.28h-31.79v22.28h-35.6V2.31h87.97ZM1104.7,29.01v15.56h43.41c2.17,0,4.01-.75,5.5-2.24s2.31-3.4,2.31-5.5c0-4.35-3.46-7.81-7.81-7.81h-43.41Z"/>
      <path class="cls-1" d="M1282.29,2.38c18.82-.2,34.78,15.62,34.51,34.51.27,18.82-15.69,34.78-34.51,34.51h-52.38v22.28h-35.6V2.38h87.97ZM1273.39,44.63c2.11,0,3.94-.75,5.43-2.24s2.31-3.4,2.31-5.5-.75-4.01-2.31-5.5c-1.49-1.56-3.33-2.31-5.43-2.31h-43.48v15.56h43.48Z"/>
    </g>
  </g>
</svg>