<?xml version="1.0" encoding="UTF-8"?>
<svg id="Camada_2" data-name="Camada 2" xmlns="http://www.w3.org/2000/svg" viewBox="0 0 834.11 586.96">
  <defs>
    <style>
      .cls-1 {
        fill: #33276a;
      }

      .cls-2 {
        fill: #282351;
      }

      .cls-3 {
        fill: #7965aa;
      }
    </style>
  </defs>
  <g id="Camada_1-2" data-name="Camada 1">
    <g>
      <path class="cls-2" d="M719.92,328.03c-.27,1.4-.56,2.81-.86,4.21-34,30.57-76.77,55.24-118.52,73.59.31-.75.61-1.5.9-2.26,9.39-24.6,7.83-56.13.68-81.02-6.38-22.21-23.59-44.99-45.24-53.93,5.48,42.34-1.53,103.34-48.02,119.77-8.5,3.01-15.23,4.85-24.4,3.16-30.35-5.56-6.9-35.19-4.08-54.1,7.43-49.9-54.96-65.58-59.33-108.29-2.41-23.5,10.23-50.68,18.52-72.25.84-2.85-2.29-1.88-4.03-1.53-33.2,6.7-70.36,42.43-80.16,74.54-10.61,34.81.26,57.76,1.87,90.48,1.6,32.78-22.38,41.73-50.56,31.85-42.52-14.93-30.33-75.78-19.29-108.58-39.44,11.18-65.79,57.76-73.02,96.01-9.2,48.67,9.77,92.87,39.84,130.09l.75.93c-20.11-.4-39.39-6.41-58.64-11.21-.36-.49-.72-.97-1.07-1.46-56.11-76.57-71.82-177.69-37.31-267.1C196.82,90.19,278.22,18.06,386.79,3.09c105.51-14.55,206.26,22.69,273.64,104.59l-48.93,19.67-2.21.89c24.31,16.5,49.93,31.01,73.46,48.81,13.26,10.04,18.95,15.96,30.07,27.94.65,2.42,1.28,4.84,1.88,7.26,9.43,38.04,12.77,76.98,5.22,115.78Z"/>
      <path class="cls-2" d="M670.41,458.24c-4.8,11.73-13.34,21.82-21.81,31.21-83.37,92.3-212.48,122.32-328.75,76.08,119.31-4.8,249.26-43.28,350.57-107.29Z"/>
      <path class="cls-1" d="M601.44,403.57c-1.22.58-2.44,1.15-3.67,1.73-106.25,49.98-225.5,78.45-343.55,64.47-30.07-37.22-49.04-81.42-39.84-130.09,7.23-38.25,33.58-84.83,73.02-96.01-11.04,32.8-23.23,93.65,19.29,108.58,28.18,9.88,52.16.93,50.56-31.85-1.61-32.72-12.48-55.67-1.87-90.48,9.8-32.11,46.96-67.84,80.16-74.54,1.74-.35,4.87-1.32,4.03,1.53-8.29,21.57-20.93,48.75-18.52,72.25,4.37,42.71,66.76,58.39,59.33,108.29-2.82,18.91-26.27,48.54,4.08,54.1,9.17,1.69,15.9-.15,24.4-3.16,46.49-16.43,53.5-77.43,48.02-119.77,21.65,8.94,38.86,31.72,45.24,53.93,7.15,24.89,8.71,56.42-.68,81.02Z"/>
      <path class="cls-3" d="M670.41,458.24c-101.31,64.01-231.26,102.49-350.57,107.29-118.83,4.78-297.23-30.46-317.96-172.96-15.21-104.56,64.29-175.44,147.68-219.99-.56,1.18-1.11,2.36-1.64,3.55-9.22,20.09-16.24,40.76-20.87,62.49-.37,1.74-.63,3.74-.86,5.85-.68,6.26-1.04,13.51-2.93,17.81-.14.33-.34.69-.58,1.09-3.64,6.11-17.42,19.31-22.18,26.06-10.9,15.43-18.28,31.82-21.48,48.18-2.25,11.51-2.43,23-.29,34.11,3.76,19.6,14.71,38.02,34.14,53.33,12.98,10.22,27.25,17.19,42.18,22.57,6.49,2.34,13.11,4.38,19.8,6.25,7.1,2,14.28,3.82,21.48,5.62,19.25,4.8,38.53,10.81,58.64,11.21l-.75-.93c118.05,13.98,237.3-14.49,343.55-64.47,1.23-.58,2.45-1.15,3.67-1.73-.29.76-.59,1.51-.9,2.26,41.75-18.35,84.52-43.02,118.52-73.59,43.42-39.05,81.68-109.72,25.56-155.94-2.65-.47-1.81.98-1.78,2.58h0c0,.19,0,.38-.02.57-.96,6.95-4.5,34.95-9.32,38.09-1.32.86-2.66,1.2-4,1.14-6.4-.25-12.76-9.49-16.68-13.69-11.12-11.98-16.81-17.9-30.07-27.94-23.53-17.8-49.15-32.31-73.46-48.81l2.21-.89,48.93-19.67c4.81-1.68,9.6-3.51,14.38-5.45.02,0,.05-.02.08-.03,11.41-4.63,22.75-9.84,34.09-14.98,14.42-6.54,28.85-12.95,43.46-17.9,8.04-2.73,13.58-5.81,12.7,6.42l-9.7,43.67c34.74,20.04,65.83,45.79,75.34,86.76,23.57,101.52-83.06,203.22-160.37,252.07Z"/>
    </g>
  </g>
</svg>